<ttFont>
    <TTGlyph name=".notdef" xMin="50" yMin="-250" xMax="450" yMax="750">
      <contour>
        <pt x="50" y="-250" on="1"/>
        <pt x="450" y="-250" on="1"/>
        <pt x="450" y="750" on="1"/>
        <pt x="50" y="750" on="1"/>
      </contour>
      <contour>
        <pt x="100" y="-200" on="1"/>
        <pt x="100" y="700" on="1"/>
        <pt x="400" y="700" on="1"/>
        <pt x="400" y="-200" on="1"/>
      </contour>
    </TTGlyph>
    <TTGlyph name="Euro" xMin="66" yMin="-38" xMax="487" yMax="645">
      <contour>
        <pt x="66" y="226" on="1"/>
        <pt x="69" y="242" on="1"/>
        <pt x="151" y="242" on="1"/>
        <pt x="143" y="278" on="0"/>
        <pt x="143" y="313" on="1"/>
        <pt x="143" y="339" on="0"/>
        <pt x="147" y="365" on="1"/>
        <pt x="73" y="365" on="1"/>
        <pt x="76" y="381" on="1"/>
        <pt x="150" y="381" on="1"/>
        <pt x="164" y="452" on="0"/>
        <pt x="252" y="572" on="0"/>
        <pt x="392" y="645" on="0"/>
        <pt x="487" y="645" on="1"/>
        <pt x="487" y="629" on="1"/>
        <pt x="397" y="629" on="0"/>
        <pt x="263" y="560" on="0"/>
        <pt x="180" y="448" on="0"/>
        <pt x="166" y="381" on="1"/>
        <pt x="414" y="381" on="1"/>
        <pt x="411" y="365" on="1"/>
        <pt x="163" y="365" on="1"/>
        <pt x="159" y="339" on="0"/>
        <pt x="159" y="313" on="1"/>
        <pt x="159" y="278" on="0"/>
        <pt x="167" y="242" on="1"/>
        <pt x="408" y="242" on="1"/>
        <pt x="405" y="226" on="1"/>
        <pt x="171" y="226" on="1"/>
        <pt x="188" y="162" on="0"/>
        <pt x="270" y="49" on="0"/>
        <pt x="399" y="-21" on="0"/>
        <pt x="487" y="-22" on="1"/>
        <pt x="487" y="-38" on="1"/>
        <pt x="395" y="-38" on="0"/>
        <pt x="258" y="37" on="0"/>
        <pt x="171" y="158" on="0"/>
        <pt x="154" y="226" on="1"/>
      </contour>
    </TTGlyph>
    <TTGlyph name="arrowboth" xMin="43" yMin="90" xMax="638" yMax="481">
      <contour>
        <pt x="241" y="90" on="1"/>
        <pt x="43" y="285" on="1"/>
        <pt x="241" y="481" on="1"/>
        <pt x="253" y="469" on="1"/>
        <pt x="74" y="293" on="1"/>
        <pt x="607" y="293" on="1"/>
        <pt x="428" y="469" on="1"/>
        <pt x="440" y="481" on="1"/>
        <pt x="638" y="285" on="1"/>
        <pt x="440" y="90" on="1"/>
        <pt x="428" y="101" on="1"/>
        <pt x="606" y="277" on="1"/>
        <pt x="75" y="277" on="1"/>
        <pt x="253" y="101" on="1"/>
      </contour>
    </TTGlyph>
    <TTGlyph name="arrowdown" xMin="96" yMin="-21" xMax="532" yMax="556">
      <contour>
        <pt x="314" y="-21" on="1"/>
        <pt x="96" y="200" on="1"/>
        <pt x="108" y="211" on="1"/>
        <pt x="306" y="11" on="1"/>
        <pt x="306" y="556" on="1"/>
        <pt x="322" y="556" on="1"/>
        <pt x="322" y="10" on="1"/>
        <pt x="521" y="211" on="1"/>
        <pt x="532" y="199" on="1"/>
      </contour>
    </TTGlyph>
    <TTGlyph name="arrowleft" xMin="42" yMin="69" xMax="611" yMax="505">
      <contour>
        <pt x="263" y="69" on="1"/>
        <pt x="42" y="287" on="1"/>
        <pt x="263" y="505" on="1"/>
        <pt x="275" y="493" on="1"/>
        <pt x="73" y="295" on="1"/>
        <pt x="611" y="295" on="1"/>
        <pt x="611" y="279" on="1"/>
        <pt x="74" y="279" on="1"/>
        <pt x="275" y="81" on="1"/>
      </contour>
    </TTGlyph>
    <TTGlyph name="arrowright" xMin="45" yMin="69" xMax="614" yMax="505">
      <contour>
        <pt x="45" y="279" on="1"/>
        <pt x="45" y="295" on="1"/>
        <pt x="583" y="295" on="1"/>
        <pt x="381" y="493" on="1"/>
        <pt x="393" y="505" on="1"/>
        <pt x="614" y="287" on="1"/>
        <pt x="393" y="69" on="1"/>
        <pt x="381" y="81" on="1"/>
        <pt x="582" y="279" on="1"/>
      </contour>
    </TTGlyph>
    <TTGlyph name="arrowup" xMin="96" yMin="0" xMax="532" yMax="569">
      <contour>
        <pt x="307" y="0" on="1"/>
        <pt x="307" y="538" on="1"/>
        <pt x="108" y="337" on="1"/>
        <pt x="96" y="348" on="1"/>
        <pt x="314" y="569" on="1"/>
        <pt x="532" y="348" on="1"/>
        <pt x="521" y="336" on="1"/>
        <pt x="323" y="537" on="1"/>
        <pt x="323" y="0" on="1"/>
      </contour>
    </TTGlyph>
    <TTGlyph name="arrowupdn" xMin="118" yMin="-26" xMax="510" yMax="570">
      <contour>
        <pt x="314" y="-26" on="1"/>
        <pt x="118" y="173" on="1"/>
        <pt x="130" y="185" on="1"/>
        <pt x="307" y="6" on="1"/>
        <pt x="307" y="539" on="1"/>
        <pt x="130" y="360" on="1"/>
        <pt x="118" y="372" on="1"/>
        <pt x="314" y="570" on="1"/>
        <pt x="510" y="372" on="1"/>
        <pt x="498" y="360" on="1"/>
        <pt x="323" y="538" on="1"/>
        <pt x="323" y="6" on="1"/>
        <pt x="498" y="184" on="1"/>
        <pt x="510" y="173" on="1"/>
      </contour>
    </TTGlyph>
    <TTGlyph name="asciicircum" xMin="105" yMin="340" xMax="456" yMax="605">
      <contour>
        <pt x="105" y="340" on="1"/>
        <pt x="272" y="605" on="1"/>
        <pt x="285" y="605" on="1"/>
        <pt x="456" y="340" on="1"/>
        <pt x="440" y="340" on="1"/>
        <pt x="278" y="590" on="1"/>
        <pt x="121" y="340" on="1"/>
      </contour>
    </TTGlyph>
    <TTGlyph name="asterisk" xMin="66" yMin="318" xMax="379" yMax="671">
      <contour>
        <pt x="227" y="490" on="1"/>
        <pt x="229" y="318" on="1"/>
        <pt x="214" y="318" on="1"/>
        <pt x="217" y="491" on="1"/>
        <pt x="74" y="406" on="1"/>
        <pt x="67" y="419" on="1"/>
        <pt x="212" y="498" on="1"/>
        <pt x="66" y="579" on="1"/>
        <pt x="74" y="592" on="1"/>
        <pt x="217" y="506" on="1"/>
        <pt x="214" y="671" on="1"/>
        <pt x="229" y="671" on="1"/>
        <pt x="227" y="507" on="1"/>
        <pt x="370" y="592" on="1"/>
        <pt x="377" y="579" on="1"/>
        <pt x="230" y="498" on="1"/>
        <pt x="379" y="417" on="1"/>
        <pt x="371" y="404" on="1"/>
      </contour>
    </TTGlyph>
    <TTGlyph name="backslash" xMin="82" yMin="-184" xMax="346" yMax="730">
      <contour>
        <pt x="346" y="-184" on="1"/>
        <pt x="299" y="-40" on="1"/>
        <pt x="82" y="730" on="1"/>
        <pt x="129" y="586" on="1"/>
      </contour>
    </TTGlyph>
    <TTGlyph name="bar" xMin="75" yMin="-79" xMax="83" yMax="579">
      <contour>
        <pt x="75" y="-79" on="1"/>
        <pt x="75" y="579" on="1"/>
        <pt x="83" y="579" on="1"/>
        <pt x="83" y="-79" on="1"/>
      </contour>
    </TTGlyph>
    <TTGlyph name="braceleft" xMin="31" yMin="-233" xMax="328" yMax="733">
      <contour>
        <pt x="317" y="-233" on="1"/>
        <pt x="248" y="-233" on="0"/>
        <pt x="166" y="-189" on="0"/>
        <pt x="129" y="-93" on="0"/>
        <pt x="129" y="-13" on="1"/>
        <pt x="129" y="107" on="1"/>
        <pt x="129" y="164" on="0"/>
        <pt x="116" y="221" on="0"/>
        <pt x="74" y="241" on="0"/>
        <pt x="31" y="241" on="1"/>
        <pt x="31" y="256" on="1"/>
        <pt x="74" y="256" on="0"/>
        <pt x="116" y="275" on="0"/>
        <pt x="129" y="328" on="0"/>
        <pt x="129" y="382" on="1"/>
        <pt x="129" y="513" on="1"/>
        <pt x="129" y="593" on="0"/>
        <pt x="166" y="689" on="0"/>
        <pt x="248" y="733" on="0"/>
        <pt x="317" y="733" on="1"/>
        <pt x="328" y="733" on="1"/>
        <pt x="328" y="717" on="1"/>
        <pt x="259" y="717" on="0"/>
        <pt x="179" y="680" on="0"/>
        <pt x="146" y="591" on="0"/>
        <pt x="146" y="513" on="1"/>
        <pt x="146" y="381" on="1"/>
        <pt x="146" y="316" on="0"/>
        <pt x="123" y="256" on="0"/>
        <pt x="83" y="248" on="1"/>
        <pt x="123" y="240" on="0"/>
        <pt x="146" y="177" on="0"/>
        <pt x="146" y="107" on="1"/>
        <pt x="146" y="-13" on="1"/>
        <pt x="146" y="-92" on="0"/>
        <pt x="180" y="-181" on="0"/>
        <pt x="260" y="-217" on="0"/>
        <pt x="328" y="-217" on="1"/>
        <pt x="328" y="-233" on="1"/>
      </contour>
    </TTGlyph>
    <TTGlyph name="braceright" xMin="66" yMin="-233" xMax="363" yMax="733">
      <contour>
        <pt x="66" y="-233" on="1"/>
        <pt x="66" y="-217" on="1"/>
        <pt x="134" y="-217" on="0"/>
        <pt x="214" y="-181" on="0"/>
        <pt x="248" y="-92" on="0"/>
        <pt x="248" y="-13" on="1"/>
        <pt x="248" y="107" on="1"/>
        <pt x="248" y="177" on="0"/>
        <pt x="271" y="240" on="0"/>
        <pt x="311" y="248" on="1"/>
        <pt x="271" y="256" on="0"/>
        <pt x="248" y="316" on="0"/>
        <pt x="248" y="381" on="1"/>
        <pt x="248" y="513" on="1"/>
        <pt x="248" y="591" on="0"/>
        <pt x="214" y="680" on="0"/>
        <pt x="135" y="717" on="0"/>
        <pt x="66" y="717" on="1"/>
        <pt x="66" y="733" on="1"/>
        <pt x="77" y="733" on="1"/>
        <pt x="146" y="733" on="0"/>
        <pt x="228" y="689" on="0"/>
        <pt x="265" y="593" on="0"/>
        <pt x="265" y="513" on="1"/>
        <pt x="265" y="382" on="1"/>
        <pt x="265" y="328" on="0"/>
        <pt x="278" y="275" on="0"/>
        <pt x="320" y="256" on="0"/>
        <pt x="363" y="256" on="1"/>
        <pt x="363" y="241" on="1"/>
        <pt x="320" y="241" on="0"/>
        <pt x="278" y="221" on="0"/>
        <pt x="265" y="164" on="0"/>
        <pt x="265" y="107" on="1"/>
        <pt x="265" y="-13" on="1"/>
        <pt x="265" y="-93" on="0"/>
        <pt x="228" y="-189" on="0"/>
        <pt x="146" y="-233" on="0"/>
        <pt x="77" y="-233" on="1"/>
      </contour>
    </TTGlyph>
    <TTGlyph name="bracketleft" xMin="67" yMin="-233" xMax="198" yMax="733">
      <contour>
        <pt x="67" y="-233" on="1"/>
        <pt x="67" y="733" on="1"/>
        <pt x="198" y="733" on="1"/>
        <pt x="198" y="717" on="1"/>
        <pt x="84" y="717" on="1"/>
        <pt x="84" y="-217" on="1"/>
        <pt x="198" y="-217" on="1"/>
        <pt x="198" y="-233" on="1"/>
      </contour>
    </TTGlyph>
    <TTGlyph name="bracketright" xMin="66" yMin="-233" xMax="196" yMax="733">
      <contour>
        <pt x="66" y="-233" on="1"/>
        <pt x="66" y="-217" on="1"/>
        <pt x="180" y="-217" on="1"/>
        <pt x="180" y="717" on="1"/>
        <pt x="66" y="717" on="1"/>
        <pt x="66" y="733" on="1"/>
        <pt x="196" y="733" on="1"/>
        <pt x="196" y="-233" on="1"/>
      </contour>
    </TTGlyph>
    <TTGlyph name="bullet" xMin="51" yMin="228" xMax="160" yMax="337">
      <contour>
        <pt x="106" y="228" on="1"/>
        <pt x="83" y="228" on="0"/>
        <pt x="51" y="258" on="0"/>
        <pt x="51" y="283" on="1"/>
        <pt x="51" y="305" on="0"/>
        <pt x="81" y="337" on="0"/>
        <pt x="106" y="337" on="1"/>
        <pt x="130" y="337" on="0"/>
        <pt x="160" y="305" on="0"/>
        <pt x="160" y="283" on="1"/>
        <pt x="160" y="258" on="0"/>
        <pt x="128" y="228" on="0"/>
      </contour>
    </TTGlyph>
    <TTGlyph name="colon" xMin="66" yMin="-5" xMax="104" yMax="449">
      <contour>
        <pt x="85" y="411" on="1"/>
        <pt x="66" y="411" on="0"/>
        <pt x="66" y="430" on="1"/>
        <pt x="66" y="449" on="0"/>
        <pt x="85" y="449" on="1"/>
        <pt x="104" y="449" on="0"/>
        <pt x="104" y="430" on="1"/>
        <pt x="104" y="411" on="0"/>
      </contour>
      <contour>
        <pt x="85" y="-5" on="1"/>
        <pt x="66" y="-5" on="0"/>
        <pt x="66" y="14" on="1"/>
        <pt x="66" y="33" on="0"/>
        <pt x="85" y="33" on="1"/>
        <pt x="104" y="33" on="0"/>
        <pt x="104" y="14" on="1"/>
        <pt x="104" y="-5" on="0"/>
      </contour>
    </TTGlyph>
    <TTGlyph name="comma" xMin="36" yMin="-118" xMax="104" yMax="88">
      <contour>
        <pt x="36" y="-118" on="1"/>
        <pt x="87" y="88" on="1"/>
        <pt x="104" y="88" on="1"/>
        <pt x="50" y="-118" on="1"/>
      </contour>
    </TTGlyph>
    <TTGlyph name="copyright" xMin="72" yMin="-67" xMax="784" yMax="637">
      <contour>
        <pt x="423" y="-67" on="1"/>
        <pt x="352" y="-67" on="0"/>
        <pt x="224" y="-12" on="0"/>
        <pt x="127" y="86" on="0"/>
        <pt x="72" y="213" on="0"/>
        <pt x="72" y="285" on="1"/>
        <pt x="72" y="357" on="0"/>
        <pt x="127" y="484" on="0"/>
        <pt x="224" y="582" on="0"/>
        <pt x="352" y="637" on="0"/>
        <pt x="423" y="637" on="1"/>
        <pt x="497" y="637" on="0"/>
        <pt x="627" y="582" on="0"/>
        <pt x="727" y="484" on="0"/>
        <pt x="784" y="357" on="0"/>
        <pt x="784" y="285" on="1"/>
        <pt x="784" y="213" on="0"/>
        <pt x="727" y="86" on="0"/>
        <pt x="627" y="-12" on="0"/>
        <pt x="497" y="-67" on="0"/>
      </contour>
      <contour>
        <pt x="423" y="-52" on="1"/>
        <pt x="494" y="-52" on="0"/>
        <pt x="619" y="1" on="0"/>
        <pt x="714" y="94" on="0"/>
        <pt x="768" y="216" on="0"/>
        <pt x="768" y="285" on="1"/>
        <pt x="768" y="354" on="0"/>
        <pt x="714" y="476" on="0"/>
        <pt x="619" y="569" on="0"/>
        <pt x="494" y="622" on="0"/>
        <pt x="423" y="622" on="1"/>
        <pt x="354" y="622" on="0"/>
        <pt x="233" y="569" on="0"/>
        <pt x="140" y="476" on="0"/>
        <pt x="88" y="354" on="0"/>
        <pt x="88" y="285" on="1"/>
        <pt x="88" y="216" on="0"/>
        <pt x="140" y="94" on="0"/>
        <pt x="233" y="1" on="0"/>
        <pt x="354" y="-52" on="0"/>
      </contour>
      <contour>
        <pt x="427" y="84" on="1"/>
        <pt x="370" y="84" on="0"/>
        <pt x="279" y="137" on="0"/>
        <pt x="225" y="228" on="0"/>
        <pt x="225" y="285" on="1"/>
        <pt x="225" y="341" on="0"/>
        <pt x="279" y="432" on="0"/>
        <pt x="371" y="487" on="0"/>
        <pt x="427" y="487" on="1"/>
        <pt x="483" y="487" on="0"/>
        <pt x="578" y="431" on="0"/>
        <pt x="603" y="385" on="1"/>
        <pt x="589" y="377" on="1"/>
        <pt x="566" y="419" on="0"/>
        <pt x="478" y="471" on="0"/>
        <pt x="427" y="471" on="1"/>
        <pt x="375" y="471" on="0"/>
        <pt x="291" y="422" on="0"/>
        <pt x="241" y="338" on="0"/>
        <pt x="241" y="285" on="1"/>
        <pt x="241" y="233" on="0"/>
        <pt x="291" y="149" on="0"/>
        <pt x="375" y="100" on="0"/>
        <pt x="427" y="100" on="1"/>
        <pt x="480" y="100" on="0"/>
        <pt x="569" y="154" on="0"/>
        <pt x="592" y="200" on="1"/>
        <pt x="606" y="192" on="1"/>
        <pt x="581" y="143" on="0"/>
        <pt x="484" y="84" on="0"/>
      </contour>
    </TTGlyph>
    <TTGlyph name="degree" xMin="74" yMin="446" xMax="307" yMax="678">
      <contour>
        <pt x="191" y="446" on="1"/>
        <pt x="158" y="446" on="0"/>
        <pt x="105" y="477" on="0"/>
        <pt x="74" y="530" on="0"/>
        <pt x="74" y="562" on="1"/>
        <pt x="74" y="594" on="0"/>
        <pt x="106" y="647" on="0"/>
        <pt x="159" y="678" on="0"/>
        <pt x="191" y="678" on="1"/>
        <pt x="223" y="678" on="0"/>
        <pt x="276" y="647" on="0"/>
        <pt x="307" y="594" on="0"/>
        <pt x="307" y="562" on="1"/>
        <pt x="307" y="530" on="0"/>
        <pt x="276" y="477" on="0"/>
        <pt x="223" y="446" on="0"/>
      </contour>
      <contour>
        <pt x="191" y="460" on="1"/>
        <pt x="233" y="460" on="0"/>
        <pt x="292" y="519" on="0"/>
        <pt x="292" y="562" on="1"/>
        <pt x="292" y="604" on="0"/>
        <pt x="233" y="664" on="0"/>
        <pt x="191" y="664" on="1"/>
        <pt x="148" y="664" on="0"/>
        <pt x="89" y="604" on="0"/>
        <pt x="89" y="562" on="1"/>
        <pt x="89" y="520" on="0"/>
        <pt x="148" y="460" on="0"/>
      </contour>
    </TTGlyph>
    <TTGlyph name="divide" xMin="77" yMin="117" xMax="439" yMax="464">
      <contour>
        <pt x="258" y="428" on="1"/>
        <pt x="240" y="428" on="0"/>
        <pt x="240" y="446" on="1"/>
        <pt x="240" y="464" on="0"/>
        <pt x="258" y="464" on="1"/>
        <pt x="276" y="464" on="0"/>
        <pt x="276" y="446" on="1"/>
        <pt x="276" y="428" on="0"/>
      </contour>
      <contour>
        <pt x="77" y="279" on="1"/>
        <pt x="77" y="294" on="1"/>
        <pt x="439" y="294" on="1"/>
        <pt x="439" y="279" on="1"/>
      </contour>
      <contour>
        <pt x="258" y="117" on="1"/>
        <pt x="240" y="117" on="0"/>
        <pt x="240" y="135" on="1"/>
        <pt x="240" y="153" on="0"/>
        <pt x="258" y="153" on="1"/>
        <pt x="276" y="153" on="0"/>
        <pt x="276" y="135" on="1"/>
        <pt x="276" y="117" on="0"/>
      </contour>
    </TTGlyph>
    <TTGlyph name="dollar" xMin="82" yMin="-102" xMax="517" yMax="730">
      <contour>
        <pt x="303" y="-102" on="1"/>
        <pt x="303" y="-10" on="1"/>
        <pt x="231" y="-8" on="0"/>
        <pt x="129" y="34" on="0"/>
        <pt x="82" y="77" on="1"/>
        <pt x="95" y="89" on="1"/>
        <pt x="139" y="48" on="0"/>
        <pt x="234" y="7" on="0"/>
        <pt x="303" y="5" on="1"/>
        <pt x="303" y="318" on="1"/>
        <pt x="299" y="319" on="1"/>
        <pt x="250" y="335" on="0"/>
        <pt x="157" y="372" on="0"/>
        <pt x="98" y="431" on="0"/>
        <pt x="98" y="480" on="1"/>
        <pt x="98" y="520" on="0"/>
        <pt x="145" y="596" on="0"/>
        <pt x="236" y="645" on="0"/>
        <pt x="301" y="645" on="1"/>
        <pt x="303" y="645" on="1"/>
        <pt x="303" y="730" on="1"/>
        <pt x="320" y="730" on="1"/>
        <pt x="320" y="644" on="1"/>
        <pt x="376" y="641" on="0"/>
        <pt x="466" y="600" on="0"/>
        <pt x="507" y="565" on="1"/>
        <pt x="494" y="554" on="1"/>
        <pt x="456" y="588" on="0"/>
        <pt x="372" y="626" on="0"/>
        <pt x="320" y="628" on="1"/>
        <pt x="320" y="331" on="1"/>
        <pt x="369" y="316" on="0"/>
        <pt x="460" y="276" on="0"/>
        <pt x="517" y="209" on="0"/>
        <pt x="517" y="155" on="1"/>
        <pt x="517" y="108" on="0"/>
        <pt x="468" y="33" on="0"/>
        <pt x="380" y="-11" on="0"/>
        <pt x="321" y="-11" on="1"/>
        <pt x="320" y="-11" on="1"/>
        <pt x="320" y="-102" on="1"/>
      </contour>
      <contour>
        <pt x="301" y="337" on="1"/>
        <pt x="303" y="337" on="1"/>
        <pt x="303" y="629" on="1"/>
        <pt x="301" y="629" on="1"/>
        <pt x="241" y="629" on="0"/>
        <pt x="158" y="585" on="0"/>
        <pt x="114" y="516" on="0"/>
        <pt x="114" y="480" on="1"/>
        <pt x="114" y="437" on="0"/>
        <pt x="167" y="385" on="0"/>
        <pt x="253" y="352" on="0"/>
      </contour>
      <contour>
        <pt x="501" y="155" on="1"/>
        <pt x="501" y="202" on="0"/>
        <pt x="450" y="262" on="0"/>
        <pt x="367" y="298" on="0"/>
        <pt x="320" y="313" on="1"/>
        <pt x="320" y="5" on="1"/>
        <pt x="321" y="5" on="1"/>
        <pt x="375" y="5" on="0"/>
        <pt x="456" y="44" on="0"/>
        <pt x="501" y="112" on="0"/>
      </contour>
    </TTGlyph>
    <TTGlyph name="eight" xMin="63" yMin="-5" xMax="439" yMax="605">
      <contour>
        <pt x="251" y="-5" on="1"/>
        <pt x="196" y="-5" on="0"/>
        <pt x="111" y="38" on="0"/>
        <pt x="63" y="116" on="0"/>
        <pt x="63" y="169" on="1"/>
        <pt x="63" y="213" on="0"/>
        <pt x="102" y="284" on="0"/>
        <pt x="167" y="330" on="0"/>
        <pt x="209" y="337" on="1"/>
        <pt x="177" y="343" on="0"/>
        <pt x="127" y="384" on="0"/>
        <pt x="98" y="440" on="0"/>
        <pt x="98" y="468" on="1"/>
        <pt x="98" y="502" on="0"/>
        <pt x="139" y="565" on="0"/>
        <pt x="208" y="605" on="0"/>
        <pt x="251" y="605" on="1"/>
        <pt x="294" y="605" on="0"/>
        <pt x="363" y="565" on="0"/>
        <pt x="404" y="502" on="0"/>
        <pt x="404" y="468" on="1"/>
        <pt x="404" y="440" on="0"/>
        <pt x="375" y="384" on="0"/>
        <pt x="324" y="343" on="0"/>
        <pt x="293" y="337" on="1"/>
        <pt x="334" y="330" on="0"/>
        <pt x="400" y="284" on="0"/>
        <pt x="439" y="213" on="0"/>
        <pt x="439" y="169" on="1"/>
        <pt x="439" y="116" on="0"/>
        <pt x="390" y="38" on="0"/>
        <pt x="306" y="-5" on="0"/>
      </contour>
      <contour>
        <pt x="251" y="344" on="1"/>
        <pt x="290" y="344" on="0"/>
        <pt x="352" y="379" on="0"/>
        <pt x="388" y="436" on="0"/>
        <pt x="388" y="468" on="1"/>
        <pt x="388" y="498" on="0"/>
        <pt x="351" y="554" on="0"/>
        <pt x="289" y="589" on="0"/>
        <pt x="251" y="589" on="1"/>
        <pt x="212" y="589" on="0"/>
        <pt x="150" y="554" on="0"/>
        <pt x="114" y="498" on="0"/>
        <pt x="114" y="468" on="1"/>
        <pt x="114" y="437" on="0"/>
        <pt x="150" y="380" on="0"/>
        <pt x="211" y="344" on="0"/>
      </contour>
      <contour>
        <pt x="251" y="12" on="1"/>
        <pt x="300" y="12" on="0"/>
        <pt x="378" y="51" on="0"/>
        <pt x="423" y="121" on="0"/>
        <pt x="423" y="169" on="1"/>
        <pt x="423" y="216" on="0"/>
        <pt x="375" y="288" on="0"/>
        <pt x="297" y="329" on="0"/>
        <pt x="251" y="329" on="1"/>
        <pt x="205" y="329" on="0"/>
        <pt x="127" y="288" on="0"/>
        <pt x="79" y="216" on="0"/>
        <pt x="79" y="169" on="1"/>
        <pt x="79" y="97" on="0"/>
        <pt x="176" y="12" on="0"/>
      </contour>
    </TTGlyph>
    <TTGlyph name="emdash" xMin="52" yMin="252" xMax="637" yMax="267">
      <contour>
        <pt x="52" y="252" on="1"/>
        <pt x="52" y="267" on="1"/>
        <pt x="637" y="267" on="1"/>
        <pt x="637" y="252" on="1"/>
      </contour>
    </TTGlyph>
    <TTGlyph name="endash" xMin="52" yMin="252" xMax="472" yMax="267">
      <contour>
        <pt x="52" y="252" on="1"/>
        <pt x="52" y="267" on="1"/>
        <pt x="472" y="267" on="1"/>
        <pt x="472" y="252" on="1"/>
      </contour>
    </TTGlyph>
    <TTGlyph name="equal" xMin="77" yMin="188" xMax="442" yMax="386">
      <contour>
        <pt x="77" y="371" on="1"/>
        <pt x="77" y="386" on="1"/>
        <pt x="442" y="386" on="1"/>
        <pt x="442" y="371" on="1"/>
      </contour>
      <contour>
        <pt x="77" y="188" on="1"/>
        <pt x="77" y="202" on="1"/>
        <pt x="442" y="202" on="1"/>
        <pt x="442" y="188" on="1"/>
      </contour>
    </TTGlyph>
    <TTGlyph name="exclam" xMin="69" yMin="-5" xMax="107" yMax="599">
      <contour>
        <pt x="82" y="119" on="1"/>
        <pt x="81" y="184" on="0"/>
        <pt x="80" y="319" on="0"/>
        <pt x="79" y="439" on="0"/>
        <pt x="79" y="482" on="1"/>
        <pt x="79" y="599" on="1"/>
        <pt x="95" y="599" on="1"/>
        <pt x="95" y="482" on="1"/>
        <pt x="95" y="439" on="0"/>
        <pt x="95" y="319" on="0"/>
        <pt x="94" y="184" on="0"/>
        <pt x="93" y="119" on="1"/>
      </contour>
      <contour>
        <pt x="78" y="5" on="1"/>
        <pt x="69" y="14" on="0"/>
        <pt x="78" y="24" on="1"/>
        <pt x="88" y="32" on="0"/>
        <pt x="97" y="23" on="1"/>
        <pt x="107" y="14" on="0"/>
        <pt x="97" y="4" on="1"/>
        <pt x="87" y="-5" on="0"/>
      </contour>
    </TTGlyph>
    <TTGlyph name="five" xMin="78" yMin="-15" xMax="455" yMax="602">
      <contour>
        <pt x="253" y="-15" on="1"/>
        <pt x="201" y="-15" on="0"/>
        <pt x="106" y="14" on="0"/>
        <pt x="78" y="33" on="1"/>
        <pt x="86" y="46" on="1"/>
        <pt x="110" y="29" on="0"/>
        <pt x="201" y="1" on="0"/>
        <pt x="253" y="1" on="1"/>
        <pt x="307" y="1" on="0"/>
        <pt x="391" y="44" on="0"/>
        <pt x="439" y="124" on="0"/>
        <pt x="439" y="178" on="1"/>
        <pt x="439" y="234" on="0"/>
        <pt x="389" y="312" on="0"/>
        <pt x="306" y="354" on="0"/>
        <pt x="255" y="354" on="1"/>
        <pt x="214" y="354" on="0"/>
        <pt x="140" y="341" on="0"/>
        <pt x="94" y="329" on="1"/>
        <pt x="102" y="602" on="1"/>
        <pt x="429" y="602" on="1"/>
        <pt x="429" y="586" on="1"/>
        <pt x="118" y="586" on="1"/>
        <pt x="111" y="350" on="1"/>
        <pt x="131" y="355" on="0"/>
        <pt x="184" y="364" on="0"/>
        <pt x="236" y="370" on="0"/>
        <pt x="255" y="370" on="1"/>
        <pt x="311" y="370" on="0"/>
        <pt x="401" y="324" on="0"/>
        <pt x="455" y="238" on="0"/>
        <pt x="455" y="178" on="1"/>
        <pt x="455" y="119" on="0"/>
        <pt x="403" y="33" on="0"/>
        <pt x="312" y="-15" on="0"/>
      </contour>
    </TTGlyph>
    <TTGlyph name="four" xMin="32" yMin="0" xMax="461" yMax="602">
      <contour>
        <pt x="357" y="0" on="1"/>
        <pt x="357" y="171" on="1"/>
        <pt x="32" y="171" on="1"/>
        <pt x="32" y="184" on="1"/>
        <pt x="357" y="602" on="1"/>
        <pt x="373" y="602" on="1"/>
        <pt x="373" y="188" on="1"/>
        <pt x="461" y="188" on="1"/>
        <pt x="461" y="172" on="1"/>
        <pt x="373" y="172" on="1"/>
        <pt x="373" y="0" on="1"/>
      </contour>
      <contour>
        <pt x="54" y="188" on="1"/>
        <pt x="70" y="188" on="1"/>
        <pt x="357" y="188" on="1"/>
        <pt x="357" y="575" on="1"/>
      </contour>
    </TTGlyph>
    <TTGlyph name="greater" xMin="85" yMin="79" xMax="509" yMax="494">
      <contour>
        <pt x="87" y="79" on="1"/>
        <pt x="85" y="94" on="1"/>
        <pt x="493" y="289" on="1"/>
        <pt x="85" y="479" on="1"/>
        <pt x="87" y="494" on="1"/>
        <pt x="509" y="299" on="1"/>
        <pt x="509" y="280" on="1"/>
      </contour>
    </TTGlyph>
    <TTGlyph name="hyphen" xMin="70" yMin="252" xMax="439" yMax="267">
      <contour>
        <pt x="70" y="267" on="1"/>
        <pt x="439" y="267" on="1"/>
        <pt x="439" y="252" on="1"/>
        <pt x="70" y="252" on="1"/>
      </contour>
    </TTGlyph>
    <TTGlyph name="less" xMin="85" yMin="79" xMax="509" yMax="494">
      <contour>
        <pt x="507" y="79" on="1"/>
        <pt x="85" y="280" on="1"/>
        <pt x="85" y="299" on="1"/>
        <pt x="507" y="494" on="1"/>
        <pt x="509" y="479" on="1"/>
        <pt x="101" y="289" on="1"/>
        <pt x="509" y="94" on="1"/>
      </contour>
    </TTGlyph>
    <TTGlyph name="minus" xMin="79" yMin="278" xMax="439" yMax="293">
      <contour>
        <pt x="79" y="289" on="1"/>
        <pt x="135" y="293" on="1"/>
        <pt x="439" y="282" on="1"/>
        <pt x="382" y="278" on="1"/>
      </contour>
    </TTGlyph>
    <TTGlyph name="multiply" xMin="72" yMin="141" xMax="375" yMax="442">
      <contour>
        <pt x="83" y="141" on="1"/>
        <pt x="72" y="152" on="1"/>
        <pt x="213" y="292" on="1"/>
        <pt x="72" y="432" on="1"/>
        <pt x="83" y="442" on="1"/>
        <pt x="224" y="302" on="1"/>
        <pt x="364" y="442" on="1"/>
        <pt x="375" y="431" on="1"/>
        <pt x="234" y="292" on="1"/>
        <pt x="375" y="152" on="1"/>
        <pt x="364" y="142" on="1"/>
        <pt x="224" y="281" on="1"/>
      </contour>
    </TTGlyph>
    <TTGlyph name="nine" xMin="74" yMin="-9" xMax="445" yMax="611">
      <contour>
        <pt x="197" y="-9" on="1"/>
        <pt x="187" y="3" on="1"/>
        <pt x="280" y="64" on="0"/>
        <pt x="405" y="234" on="0"/>
        <pt x="423" y="340" on="1"/>
        <pt x="398" y="298" on="0"/>
        <pt x="307" y="246" on="0"/>
        <pt x="259" y="246" on="1"/>
        <pt x="207" y="246" on="0"/>
        <pt x="123" y="293" on="0"/>
        <pt x="74" y="375" on="0"/>
        <pt x="74" y="425" on="1"/>
        <pt x="74" y="476" on="0"/>
        <pt x="118" y="560" on="0"/>
        <pt x="201" y="611" on="0"/>
        <pt x="258" y="611" on="1"/>
        <pt x="309" y="611" on="0"/>
        <pt x="394" y="558" on="0"/>
        <pt x="445" y="471" on="0"/>
        <pt x="445" y="418" on="1"/>
        <pt x="445" y="290" on="0"/>
        <pt x="317" y="69" on="0"/>
      </contour>
      <contour>
        <pt x="259" y="262" on="1"/>
        <pt x="299" y="262" on="0"/>
        <pt x="378" y="303" on="0"/>
        <pt x="429" y="373" on="0"/>
        <pt x="429" y="418" on="1"/>
        <pt x="429" y="466" on="0"/>
        <pt x="382" y="547" on="0"/>
        <pt x="305" y="595" on="0"/>
        <pt x="258" y="595" on="1"/>
        <pt x="205" y="595" on="0"/>
        <pt x="129" y="549" on="0"/>
        <pt x="90" y="472" on="0"/>
        <pt x="90" y="425" on="1"/>
        <pt x="90" y="379" on="0"/>
        <pt x="134" y="305" on="0"/>
        <pt x="211" y="262" on="0"/>
      </contour>
    </TTGlyph>
    <TTGlyph name="notequal" xMin="77" yMin="81" xMax="442" yMax="488">
      <contour>
        <pt x="150" y="81" on="1"/>
        <pt x="202" y="188" on="1"/>
        <pt x="77" y="188" on="1"/>
        <pt x="77" y="202" on="1"/>
        <pt x="209" y="202" on="1"/>
        <pt x="291" y="371" on="1"/>
        <pt x="77" y="371" on="1"/>
        <pt x="77" y="386" on="1"/>
        <pt x="299" y="386" on="1"/>
        <pt x="348" y="488" on="1"/>
        <pt x="365" y="488" on="1"/>
        <pt x="315" y="386" on="1"/>
        <pt x="442" y="386" on="1"/>
        <pt x="442" y="371" on="1"/>
        <pt x="308" y="371" on="1"/>
        <pt x="225" y="202" on="1"/>
        <pt x="442" y="202" on="1"/>
        <pt x="442" y="188" on="1"/>
        <pt x="218" y="188" on="1"/>
        <pt x="167" y="81" on="1"/>
      </contour>
    </TTGlyph>
    <TTGlyph name="numbersign" xMin="62" yMin="-61" xMax="677" yMax="640">
      <contour>
        <pt x="62" y="159" on="1"/>
        <pt x="62" y="176" on="1"/>
        <pt x="225" y="176" on="1"/>
        <pt x="257" y="404" on="1"/>
        <pt x="62" y="404" on="1"/>
        <pt x="62" y="421" on="1"/>
        <pt x="260" y="421" on="1"/>
        <pt x="291" y="640" on="1"/>
        <pt x="307" y="640" on="1"/>
        <pt x="276" y="421" on="1"/>
        <pt x="505" y="421" on="1"/>
        <pt x="537" y="640" on="1"/>
        <pt x="553" y="640" on="1"/>
        <pt x="521" y="421" on="1"/>
        <pt x="677" y="421" on="1"/>
        <pt x="677" y="404" on="1"/>
        <pt x="519" y="404" on="1"/>
        <pt x="486" y="176" on="1"/>
        <pt x="677" y="176" on="1"/>
        <pt x="677" y="159" on="1"/>
        <pt x="484" y="159" on="1"/>
        <pt x="452" y="-61" on="1"/>
        <pt x="436" y="-61" on="1"/>
        <pt x="468" y="159" on="1"/>
        <pt x="238" y="159" on="1"/>
        <pt x="207" y="-61" on="1"/>
        <pt x="191" y="-61" on="1"/>
        <pt x="222" y="159" on="1"/>
      </contour>
      <contour>
        <pt x="241" y="176" on="1"/>
        <pt x="470" y="176" on="1"/>
        <pt x="503" y="404" on="1"/>
        <pt x="273" y="404" on="1"/>
      </contour>
    </TTGlyph>
    <TTGlyph name="one" xMin="68" yMin="0" xMax="268" yMax="609">
      <contour>
        <pt x="252" y="0" on="1"/>
        <pt x="252" y="582" on="1"/>
        <pt x="68" y="485" on="1"/>
        <pt x="68" y="503" on="1"/>
        <pt x="268" y="609" on="1"/>
        <pt x="268" y="0" on="1"/>
      </contour>
    </TTGlyph>
    <TTGlyph name="parenleft" xMin="50" yMin="-229" xMax="271" yMax="728">
      <contour>
        <pt x="257" y="-229" on="1"/>
        <pt x="207" y="-187" on="0"/>
        <pt x="112" y="-54" on="0"/>
        <pt x="50" y="130" on="0"/>
        <pt x="50" y="249" on="1"/>
        <pt x="50" y="369" on="0"/>
        <pt x="112" y="551" on="0"/>
        <pt x="207" y="684" on="0"/>
        <pt x="255" y="728" on="1"/>
        <pt x="269" y="719" on="1"/>
        <pt x="220" y="673" on="0"/>
        <pt x="128" y="543" on="0"/>
        <pt x="68" y="365" on="0"/>
        <pt x="68" y="249" on="1"/>
        <pt x="68" y="133" on="0"/>
        <pt x="127" y="-45" on="0"/>
        <pt x="221" y="-176" on="0"/>
        <pt x="271" y="-220" on="1"/>
      </contour>
    </TTGlyph>
    <TTGlyph name="parenright" xMin="50" yMin="-229" xMax="271" yMax="728">
      <contour>
        <pt x="65" y="-229" on="1"/>
        <pt x="50" y="-220" on="1"/>
        <pt x="101" y="-176" on="0"/>
        <pt x="194" y="-45" on="0"/>
        <pt x="254" y="133" on="0"/>
        <pt x="254" y="249" on="1"/>
        <pt x="254" y="365" on="0"/>
        <pt x="194" y="543" on="0"/>
        <pt x="101" y="673" on="0"/>
        <pt x="52" y="719" on="1"/>
        <pt x="67" y="728" on="1"/>
        <pt x="115" y="684" on="0"/>
        <pt x="209" y="551" on="0"/>
        <pt x="271" y="369" on="0"/>
        <pt x="271" y="249" on="1"/>
        <pt x="271" y="130" on="0"/>
        <pt x="209" y="-54" on="0"/>
        <pt x="114" y="-187" on="0"/>
      </contour>
    </TTGlyph>
    <TTGlyph name="percent" xMin="33" yMin="-27" xMax="814" yMax="622">
      <contour>
        <pt x="155" y="-27" on="1"/>
        <pt x="143" y="-17" on="1"/>
        <pt x="693" y="622" on="1"/>
        <pt x="705" y="612" on="1"/>
      </contour>
      <contour>
        <pt x="205" y="267" on="1"/>
        <pt x="158" y="267" on="0"/>
        <pt x="80" y="313" on="0"/>
        <pt x="33" y="391" on="0"/>
        <pt x="33" y="439" on="1"/>
        <pt x="33" y="486" on="0"/>
        <pt x="80" y="564" on="0"/>
        <pt x="158" y="610" on="0"/>
        <pt x="205" y="610" on="1"/>
        <pt x="252" y="610" on="0"/>
        <pt x="330" y="564" on="0"/>
        <pt x="377" y="486" on="0"/>
        <pt x="377" y="439" on="1"/>
        <pt x="377" y="391" on="0"/>
        <pt x="330" y="313" on="0"/>
        <pt x="252" y="267" on="0"/>
      </contour>
      <contour>
        <pt x="205" y="281" on="1"/>
        <pt x="248" y="281" on="0"/>
        <pt x="319" y="323" on="0"/>
        <pt x="362" y="395" on="0"/>
        <pt x="362" y="439" on="1"/>
        <pt x="362" y="482" on="0"/>
        <pt x="319" y="553" on="0"/>
        <pt x="248" y="596" on="0"/>
        <pt x="205" y="596" on="1"/>
        <pt x="161" y="596" on="0"/>
        <pt x="90" y="554" on="0"/>
        <pt x="48" y="482" on="0"/>
        <pt x="48" y="439" on="1"/>
        <pt x="48" y="395" on="0"/>
        <pt x="91" y="323" on="0"/>
        <pt x="162" y="281" on="0"/>
      </contour>
      <contour>
        <pt x="642" y="-20" on="1"/>
        <pt x="595" y="-20" on="0"/>
        <pt x="517" y="26" on="0"/>
        <pt x="471" y="105" on="0"/>
        <pt x="471" y="153" on="1"/>
        <pt x="471" y="200" on="0"/>
        <pt x="517" y="278" on="0"/>
        <pt x="595" y="324" on="0"/>
        <pt x="642" y="324" on="1"/>
        <pt x="690" y="324" on="0"/>
        <pt x="768" y="278" on="0"/>
        <pt x="814" y="200" on="0"/>
        <pt x="814" y="153" on="1"/>
        <pt x="814" y="105" on="0"/>
        <pt x="767" y="27" on="0"/>
        <pt x="689" y="-20" on="0"/>
      </contour>
      <contour>
        <pt x="642" y="-6" on="1"/>
        <pt x="685" y="-6" on="0"/>
        <pt x="757" y="37" on="0"/>
        <pt x="799" y="109" on="0"/>
        <pt x="799" y="153" on="1"/>
        <pt x="799" y="196" on="0"/>
        <pt x="757" y="267" on="0"/>
        <pt x="685" y="310" on="0"/>
        <pt x="642" y="310" on="1"/>
        <pt x="599" y="310" on="0"/>
        <pt x="528" y="268" on="0"/>
        <pt x="486" y="196" on="0"/>
        <pt x="486" y="153" on="1"/>
        <pt x="486" y="109" on="0"/>
        <pt x="528" y="37" on="0"/>
        <pt x="599" y="-6" on="0"/>
      </contour>
    </TTGlyph>
    <TTGlyph name="period" xMin="67" yMin="-5" xMax="105" yMax="33">
      <contour>
        <pt x="67" y="14" on="1"/>
        <pt x="67" y="33" on="0"/>
        <pt x="86" y="33" on="1"/>
        <pt x="105" y="33" on="0"/>
        <pt x="105" y="14" on="1"/>
        <pt x="105" y="-5" on="0"/>
        <pt x="86" y="-5" on="1"/>
        <pt x="67" y="-5" on="0"/>
      </contour>
    </TTGlyph>
    <TTGlyph name="periodcentered" xMin="67" yMin="265" xMax="105" yMax="302">
      <contour>
        <pt x="75" y="275" on="1"/>
        <pt x="67" y="284" on="0"/>
        <pt x="76" y="294" on="1"/>
        <pt x="85" y="302" on="0"/>
        <pt x="95" y="293" on="1"/>
        <pt x="105" y="284" on="0"/>
        <pt x="94" y="274" on="1"/>
        <pt x="85" y="265" on="0"/>
      </contour>
    </TTGlyph>
    <TTGlyph name="plus" xMin="79" yMin="273" xMax="439" yMax="449">
      <contour>
        <pt x="79" y="273" on="1"/>
        <pt x="79" y="288" on="1"/>
        <pt x="252" y="288" on="1"/>
        <pt x="252" y="449" on="1"/>
        <pt x="267" y="449" on="1"/>
        <pt x="267" y="288" on="1"/>
        <pt x="439" y="288" on="1"/>
        <pt x="439" y="273" on="1"/>
      </contour>
    </TTGlyph>
    <TTGlyph name="question" xMin="69" yMin="-5" xMax="478" yMax="621">
      <contour>
        <pt x="253" y="131" on="1"/>
        <pt x="253" y="140" on="1"/>
        <pt x="253" y="182" on="0"/>
        <pt x="295" y="244" on="0"/>
        <pt x="357" y="295" on="0"/>
        <pt x="418" y="345" on="0"/>
        <pt x="460" y="406" on="0"/>
        <pt x="460" y="447" on="1"/>
        <pt x="461" y="490" on="0"/>
        <pt x="411" y="562" on="0"/>
        <pt x="329" y="606" on="0"/>
        <pt x="280" y="606" on="1"/>
        <pt x="213" y="606" on="0"/>
        <pt x="110" y="533" on="0"/>
        <pt x="84" y="483" on="1"/>
        <pt x="69" y="490" on="1"/>
        <pt x="87" y="525" on="0"/>
        <pt x="150" y="585" on="0"/>
        <pt x="232" y="621" on="0"/>
        <pt x="280" y="621" on="1"/>
        <pt x="333" y="621" on="0"/>
        <pt x="423" y="573" on="0"/>
        <pt x="478" y="495" on="0"/>
        <pt x="478" y="447" on="1"/>
        <pt x="478" y="403" on="0"/>
        <pt x="435" y="339" on="0"/>
        <pt x="373" y="287" on="0"/>
        <pt x="310" y="238" on="0"/>
        <pt x="268" y="180" on="0"/>
        <pt x="268" y="140" on="1"/>
        <pt x="269" y="131" on="1"/>
      </contour>
      <contour>
        <pt x="262" y="-5" on="1"/>
        <pt x="243" y="-5" on="0"/>
        <pt x="243" y="14" on="1"/>
        <pt x="243" y="33" on="0"/>
        <pt x="262" y="33" on="1"/>
        <pt x="281" y="33" on="0"/>
        <pt x="281" y="14" on="1"/>
        <pt x="281" y="-5" on="0"/>
      </contour>
    </TTGlyph>
    <TTGlyph name="quotedbl" xMin="73" yMin="365" xMax="301" yMax="600">
      <contour>
        <pt x="211" y="365" on="1"/>
        <pt x="283" y="600" on="1"/>
        <pt x="301" y="600" on="1"/>
        <pt x="226" y="365" on="1"/>
      </contour>
      <contour>
        <pt x="73" y="365" on="1"/>
        <pt x="145" y="600" on="1"/>
        <pt x="163" y="600" on="1"/>
        <pt x="88" y="365" on="1"/>
      </contour>
    </TTGlyph>
    <TTGlyph name="quotesingle" xMin="73" yMin="365" xMax="163" yMax="600">
      <contour>
        <pt x="73" y="365" on="1"/>
        <pt x="145" y="600" on="1"/>
        <pt x="163" y="600" on="1"/>
        <pt x="88" y="365" on="1"/>
      </contour>
    </TTGlyph>
    <TTGlyph name="registered" xMin="94" yMin="203" xMax="491" yMax="601">
      <contour>
        <pt x="293" y="203" on="1"/>
        <pt x="237" y="203" on="0"/>
        <pt x="147" y="257" on="0"/>
        <pt x="94" y="347" on="0"/>
        <pt x="94" y="402" on="1"/>
        <pt x="94" y="456" on="0"/>
        <pt x="148" y="547" on="0"/>
        <pt x="238" y="601" on="0"/>
        <pt x="293" y="601" on="1"/>
        <pt x="347" y="601" on="0"/>
        <pt x="438" y="547" on="0"/>
        <pt x="491" y="456" on="0"/>
        <pt x="491" y="402" on="1"/>
        <pt x="491" y="347" on="0"/>
        <pt x="437" y="257" on="0"/>
        <pt x="347" y="203" on="0"/>
      </contour>
      <contour>
        <pt x="293" y="213" on="1"/>
        <pt x="345" y="213" on="0"/>
        <pt x="430" y="264" on="0"/>
        <pt x="481" y="350" on="0"/>
        <pt x="481" y="402" on="1"/>
        <pt x="481" y="453" on="0"/>
        <pt x="430" y="539" on="0"/>
        <pt x="345" y="590" on="0"/>
        <pt x="293" y="590" on="1"/>
        <pt x="240" y="590" on="0"/>
        <pt x="155" y="539" on="0"/>
        <pt x="105" y="454" on="0"/>
        <pt x="105" y="402" on="1"/>
        <pt x="105" y="350" on="0"/>
        <pt x="155" y="264" on="0"/>
        <pt x="240" y="213" on="0"/>
      </contour>
      <contour>
        <pt x="234" y="300" on="1"/>
        <pt x="234" y="504" on="1"/>
        <pt x="291" y="504" on="1"/>
        <pt x="326" y="504" on="0"/>
        <pt x="369" y="468" on="0"/>
        <pt x="369" y="439" on="1"/>
        <pt x="369" y="392" on="0"/>
        <pt x="314" y="381" on="1"/>
        <pt x="367" y="300" on="1"/>
        <pt x="356" y="300" on="1"/>
        <pt x="304" y="380" on="1"/>
        <pt x="245" y="380" on="1"/>
        <pt x="245" y="300" on="1"/>
      </contour>
      <contour>
        <pt x="245" y="389" on="1"/>
        <pt x="290" y="389" on="1"/>
        <pt x="322" y="388" on="0"/>
        <pt x="358" y="415" on="0"/>
        <pt x="358" y="438" on="1"/>
        <pt x="358" y="464" on="0"/>
        <pt x="321" y="494" on="0"/>
        <pt x="290" y="494" on="1"/>
        <pt x="245" y="494" on="1"/>
      </contour>
    </TTGlyph>
    <TTGlyph name="semicolon" xMin="36" yMin="-118" xMax="104" yMax="449">
      <contour>
        <pt x="85" y="411" on="1"/>
        <pt x="66" y="411" on="0"/>
        <pt x="66" y="430" on="1"/>
        <pt x="66" y="449" on="0"/>
        <pt x="85" y="449" on="1"/>
        <pt x="104" y="449" on="0"/>
        <pt x="104" y="430" on="1"/>
        <pt x="104" y="411" on="0"/>
      </contour>
      <contour>
        <pt x="36" y="-118" on="1"/>
        <pt x="87" y="122" on="1"/>
        <pt x="104" y="122" on="1"/>
        <pt x="50" y="-118" on="1"/>
      </contour>
    </TTGlyph>
    <TTGlyph name="seven" xMin="28" yMin="0" xMax="439" yMax="602">
      <contour>
        <pt x="181" y="0" on="1"/>
        <pt x="164" y="0" on="1"/>
        <pt x="415" y="586" on="1"/>
        <pt x="28" y="586" on="1"/>
        <pt x="28" y="602" on="1"/>
        <pt x="439" y="602" on="1"/>
      </contour>
    </TTGlyph>
    <TTGlyph name="six" xMin="74" yMin="-13" xMax="445" yMax="609">
      <contour>
        <pt x="74" y="179" on="1"/>
        <pt x="74" y="297" on="0"/>
        <pt x="192" y="511" on="0"/>
        <pt x="302" y="609" on="1"/>
        <pt x="314" y="597" on="1"/>
        <pt x="229" y="523" on="0"/>
        <pt x="118" y="352" on="0"/>
        <pt x="99" y="264" on="1"/>
        <pt x="122" y="302" on="0"/>
        <pt x="207" y="349" on="0"/>
        <pt x="258" y="349" on="1"/>
        <pt x="312" y="349" on="0"/>
        <pt x="396" y="302" on="0"/>
        <pt x="445" y="221" on="0"/>
        <pt x="445" y="170" on="1"/>
        <pt x="445" y="120" on="0"/>
        <pt x="400" y="37" on="0"/>
        <pt x="317" y="-13" on="0"/>
        <pt x="260" y="-13" on="1"/>
        <pt x="208" y="-13" on="0"/>
        <pt x="124" y="39" on="0"/>
        <pt x="74" y="127" on="0"/>
      </contour>
      <contour>
        <pt x="260" y="3" on="1"/>
        <pt x="313" y="3" on="0"/>
        <pt x="388" y="48" on="0"/>
        <pt x="429" y="124" on="0"/>
        <pt x="429" y="170" on="1"/>
        <pt x="429" y="217" on="0"/>
        <pt x="384" y="290" on="0"/>
        <pt x="307" y="333" on="0"/>
        <pt x="258" y="333" on="1"/>
        <pt x="212" y="333" on="0"/>
        <pt x="135" y="292" on="0"/>
        <pt x="90" y="222" on="0"/>
        <pt x="90" y="179" on="1"/>
        <pt x="90" y="131" on="0"/>
        <pt x="136" y="51" on="0"/>
        <pt x="213" y="3" on="0"/>
      </contour>
    </TTGlyph>
    <TTGlyph name="slash" xMin="60" yMin="-184" xMax="349" yMax="730">
      <contour>
        <pt x="60" y="-184" on="1"/>
        <pt x="333" y="730" on="1"/>
        <pt x="349" y="730" on="1"/>
        <pt x="77" y="-184" on="1"/>
      </contour>
    </TTGlyph>
    <TTGlyph name="three" xMin="69" yMin="-5" xMax="472" yMax="602">
      <contour>
        <pt x="261" y="-5" on="1"/>
        <pt x="222" y="-5" on="0"/>
        <pt x="115" y="30" on="0"/>
        <pt x="69" y="56" on="1"/>
        <pt x="76" y="70" on="1"/>
        <pt x="121" y="45" on="0"/>
        <pt x="223" y="11" on="0"/>
        <pt x="261" y="11" on="1"/>
        <pt x="315" y="11" on="0"/>
        <pt x="404" y="59" on="0"/>
        <pt x="456" y="140" on="0"/>
        <pt x="456" y="188" on="1"/>
        <pt x="456" y="254" on="0"/>
        <pt x="340" y="342" on="0"/>
        <pt x="210" y="370" on="1"/>
        <pt x="414" y="564" on="1"/>
        <pt x="437" y="586" on="1"/>
        <pt x="82" y="586" on="1"/>
        <pt x="82" y="602" on="1"/>
        <pt x="457" y="602" on="1"/>
        <pt x="457" y="586" on="1"/>
        <pt x="241" y="381" on="1"/>
        <pt x="472" y="330" on="0"/>
        <pt x="472" y="188" on="1"/>
        <pt x="472" y="135" on="0"/>
        <pt x="415" y="47" on="0"/>
        <pt x="319" y="-5" on="0"/>
      </contour>
    </TTGlyph>
    <TTGlyph name="trademark" xMin="40" yMin="272" xMax="612" yMax="541">
      <contour>
        <pt x="152" y="272" on="1"/>
        <pt x="152" y="528" on="1"/>
        <pt x="40" y="528" on="1"/>
        <pt x="40" y="541" on="1"/>
        <pt x="277" y="541" on="1"/>
        <pt x="277" y="528" on="1"/>
        <pt x="165" y="528" on="1"/>
        <pt x="165" y="272" on="1"/>
      </contour>
      <contour>
        <pt x="325" y="272" on="1"/>
        <pt x="325" y="538" on="1"/>
        <pt x="338" y="538" on="1"/>
        <pt x="468" y="393" on="1"/>
        <pt x="599" y="538" on="1"/>
        <pt x="612" y="538" on="1"/>
        <pt x="612" y="272" on="1"/>
        <pt x="599" y="272" on="1"/>
        <pt x="599" y="518" on="1"/>
        <pt x="468" y="374" on="1"/>
        <pt x="338" y="518" on="1"/>
        <pt x="338" y="272" on="1"/>
      </contour>
    </TTGlyph>
    <TTGlyph name="two" xMin="53" yMin="0" xMax="481" yMax="609">
      <contour>
        <pt x="76" y="0" on="1"/>
        <pt x="77" y="18" on="1"/>
        <pt x="189" y="106" on="0"/>
        <pt x="351" y="241" on="0"/>
        <pt x="439" y="361" on="0"/>
        <pt x="439" y="427" on="1"/>
        <pt x="439" y="472" on="0"/>
        <pt x="395" y="548" on="0"/>
        <pt x="318" y="593" on="0"/>
        <pt x="268" y="593" on="1"/>
        <pt x="148" y="594" on="0"/>
        <pt x="66" y="482" on="1"/>
        <pt x="53" y="491" on="1"/>
        <pt x="96" y="547" on="0"/>
        <pt x="201" y="609" on="0"/>
        <pt x="268" y="609" on="1"/>
        <pt x="323" y="609" on="0"/>
        <pt x="407" y="559" on="0"/>
        <pt x="455" y="476" on="0"/>
        <pt x="455" y="427" on="1"/>
        <pt x="455" y="359" on="0"/>
        <pt x="370" y="237" on="0"/>
        <pt x="212" y="103" on="0"/>
        <pt x="101" y="16" on="1"/>
        <pt x="481" y="16" on="1"/>
        <pt x="481" y="0" on="1"/>
      </contour>
    </TTGlyph>
    <TTGlyph name="underscore" xMin="69" yMin="-2" xMax="455" yMax="13">
      <contour>
        <pt x="69" y="13" on="1"/>
        <pt x="455" y="13" on="1"/>
        <pt x="455" y="-2" on="1"/>
        <pt x="69" y="-2" on="1"/>
      </contour>
    </TTGlyph>
    <TTGlyph name="uni05B0" xMin="-18" yMin="-242" xMax="17" yMax="-90">
      <contour>
        <pt x="0" y="-127" on="1"/>
        <pt x="-18" y="-127" on="0"/>
        <pt x="-18" y="-109" on="1"/>
        <pt x="-18" y="-90" on="0"/>
        <pt x="0" y="-90" on="1"/>
        <pt x="7" y="-90" on="0"/>
        <pt x="17" y="-101" on="0"/>
        <pt x="17" y="-109" on="1"/>
        <pt x="17" y="-116" on="0"/>
        <pt x="7" y="-127" on="0"/>
      </contour>
      <contour>
        <pt x="0" y="-242" on="1"/>
        <pt x="-18" y="-242" on="0"/>
        <pt x="-18" y="-224" on="1"/>
        <pt x="-18" y="-205" on="0"/>
        <pt x="0" y="-205" on="1"/>
        <pt x="7" y="-205" on="0"/>
        <pt x="17" y="-216" on="0"/>
        <pt x="17" y="-224" on="1"/>
        <pt x="17" y="-231" on="0"/>
        <pt x="7" y="-242" on="0"/>
      </contour>
    </TTGlyph>
    <TTGlyph name="uni05B1" xMin="-133" yMin="-242" xMax="133" yMax="-90">
      <contour>
        <pt x="116" y="-127" on="1"/>
        <pt x="98" y="-127" on="0"/>
        <pt x="98" y="-109" on="1"/>
        <pt x="98" y="-90" on="0"/>
        <pt x="116" y="-90" on="1"/>
        <pt x="123" y="-90" on="0"/>
        <pt x="133" y="-101" on="0"/>
        <pt x="133" y="-109" on="1"/>
        <pt x="133" y="-116" on="0"/>
        <pt x="123" y="-127" on="0"/>
      </contour>
      <contour>
        <pt x="-115" y="-127" on="1"/>
        <pt x="-133" y="-127" on="0"/>
        <pt x="-133" y="-109" on="1"/>
        <pt x="-133" y="-90" on="0"/>
        <pt x="-115" y="-90" on="1"/>
        <pt x="-108" y="-90" on="0"/>
        <pt x="-98" y="-101" on="0"/>
        <pt x="-98" y="-109" on="1"/>
        <pt x="-98" y="-116" on="0"/>
        <pt x="-108" y="-127" on="0"/>
      </contour>
      <contour>
        <pt x="-1" y="-127" on="1"/>
        <pt x="-19" y="-127" on="0"/>
        <pt x="-19" y="-109" on="1"/>
        <pt x="-19" y="-90" on="0"/>
        <pt x="-1" y="-90" on="1"/>
        <pt x="6" y="-90" on="0"/>
        <pt x="16" y="-101" on="0"/>
        <pt x="16" y="-109" on="1"/>
        <pt x="16" y="-116" on="0"/>
        <pt x="6" y="-127" on="0"/>
      </contour>
      <contour>
        <pt x="116" y="-242" on="1"/>
        <pt x="98" y="-242" on="0"/>
        <pt x="98" y="-224" on="1"/>
        <pt x="98" y="-205" on="0"/>
        <pt x="116" y="-205" on="1"/>
        <pt x="123" y="-205" on="0"/>
        <pt x="133" y="-216" on="0"/>
        <pt x="133" y="-224" on="1"/>
        <pt x="133" y="-231" on="0"/>
        <pt x="123" y="-242" on="0"/>
      </contour>
      <contour>
        <pt x="-58" y="-242" on="1"/>
        <pt x="-76" y="-242" on="0"/>
        <pt x="-76" y="-224" on="1"/>
        <pt x="-76" y="-205" on="0"/>
        <pt x="-58" y="-205" on="1"/>
        <pt x="-51" y="-205" on="0"/>
        <pt x="-41" y="-216" on="0"/>
        <pt x="-41" y="-224" on="1"/>
        <pt x="-41" y="-231" on="0"/>
        <pt x="-51" y="-242" on="0"/>
      </contour>
    </TTGlyph>
    <TTGlyph name="uni05B2" xMin="-151" yMin="-242" xMax="130" yMax="-90">
      <contour>
        <pt x="112" y="-127" on="1"/>
        <pt x="94" y="-127" on="0"/>
        <pt x="94" y="-109" on="1"/>
        <pt x="94" y="-90" on="0"/>
        <pt x="112" y="-90" on="1"/>
        <pt x="119" y="-90" on="0"/>
        <pt x="130" y="-101" on="0"/>
        <pt x="130" y="-109" on="1"/>
        <pt x="130" y="-116" on="0"/>
        <pt x="119" y="-127" on="0"/>
      </contour>
      <contour>
        <pt x="-151" y="-113" on="1"/>
        <pt x="-151" y="-99" on="1"/>
        <pt x="25" y="-99" on="1"/>
        <pt x="25" y="-113" on="1"/>
      </contour>
      <contour>
        <pt x="112" y="-242" on="1"/>
        <pt x="94" y="-242" on="0"/>
        <pt x="94" y="-224" on="1"/>
        <pt x="94" y="-205" on="0"/>
        <pt x="112" y="-205" on="1"/>
        <pt x="119" y="-205" on="0"/>
        <pt x="130" y="-216" on="0"/>
        <pt x="130" y="-224" on="1"/>
        <pt x="130" y="-231" on="0"/>
        <pt x="119" y="-242" on="0"/>
      </contour>
    </TTGlyph>
    <TTGlyph name="uni05B3" xMin="-167" yMin="-242" xMax="113" yMax="-90">
      <contour>
        <pt x="95" y="-127" on="1"/>
        <pt x="77" y="-127" on="0"/>
        <pt x="77" y="-109" on="1"/>
        <pt x="77" y="-90" on="0"/>
        <pt x="95" y="-90" on="1"/>
        <pt x="103" y="-90" on="0"/>
        <pt x="113" y="-101" on="0"/>
        <pt x="113" y="-109" on="1"/>
        <pt x="113" y="-116" on="0"/>
        <pt x="103" y="-127" on="0"/>
      </contour>
      <contour>
        <pt x="-87" y="-235" on="1"/>
        <pt x="-86" y="-113" on="1"/>
        <pt x="-167" y="-113" on="1"/>
        <pt x="-167" y="-99" on="1"/>
        <pt x="9" y="-99" on="1"/>
        <pt x="9" y="-113" on="1"/>
        <pt x="-73" y="-113" on="1"/>
        <pt x="-73" y="-235" on="1"/>
      </contour>
      <contour>
        <pt x="95" y="-242" on="1"/>
        <pt x="77" y="-242" on="0"/>
        <pt x="77" y="-224" on="1"/>
        <pt x="77" y="-205" on="0"/>
        <pt x="95" y="-205" on="1"/>
        <pt x="103" y="-205" on="0"/>
        <pt x="113" y="-216" on="0"/>
        <pt x="113" y="-224" on="1"/>
        <pt x="113" y="-231" on="0"/>
        <pt x="103" y="-242" on="0"/>
      </contour>
    </TTGlyph>
    <TTGlyph name="uni05B4" xMin="-16" yMin="-125" xMax="15" yMax="-94">
      <contour>
        <pt x="0" y="-125" on="1"/>
        <pt x="-16" y="-125" on="0"/>
        <pt x="-16" y="-109" on="1"/>
        <pt x="-16" y="-94" on="0"/>
        <pt x="0" y="-94" on="1"/>
        <pt x="15" y="-94" on="0"/>
        <pt x="15" y="-109" on="1"/>
        <pt x="15" y="-115" on="0"/>
        <pt x="6" y="-125" on="0"/>
      </contour>
    </TTGlyph>
    <TTGlyph name="uni05B5" xMin="-95" yMin="-127" xMax="94" yMax="-90">
      <contour>
        <pt x="-77" y="-127" on="1"/>
        <pt x="-95" y="-127" on="0"/>
        <pt x="-95" y="-109" on="1"/>
        <pt x="-95" y="-90" on="0"/>
        <pt x="-77" y="-90" on="1"/>
        <pt x="-70" y="-90" on="0"/>
        <pt x="-60" y="-101" on="0"/>
        <pt x="-60" y="-109" on="1"/>
        <pt x="-60" y="-116" on="0"/>
        <pt x="-70" y="-127" on="0"/>
      </contour>
      <contour>
        <pt x="77" y="-127" on="1"/>
        <pt x="59" y="-127" on="0"/>
        <pt x="59" y="-109" on="1"/>
        <pt x="59" y="-90" on="0"/>
        <pt x="77" y="-90" on="1"/>
        <pt x="84" y="-90" on="0"/>
        <pt x="94" y="-101" on="0"/>
        <pt x="94" y="-109" on="1"/>
        <pt x="94" y="-116" on="0"/>
        <pt x="84" y="-127" on="0"/>
      </contour>
    </TTGlyph>
    <TTGlyph name="uni05B6" xMin="-95" yMin="-242" xMax="94" yMax="-90">
      <contour>
        <pt x="-77" y="-127" on="1"/>
        <pt x="-95" y="-127" on="0"/>
        <pt x="-95" y="-109" on="1"/>
        <pt x="-95" y="-90" on="0"/>
        <pt x="-77" y="-90" on="1"/>
        <pt x="-70" y="-90" on="0"/>
        <pt x="-60" y="-101" on="0"/>
        <pt x="-60" y="-109" on="1"/>
        <pt x="-60" y="-116" on="0"/>
        <pt x="-70" y="-127" on="0"/>
      </contour>
      <contour>
        <pt x="77" y="-127" on="1"/>
        <pt x="59" y="-127" on="0"/>
        <pt x="59" y="-109" on="1"/>
        <pt x="59" y="-90" on="0"/>
        <pt x="77" y="-90" on="1"/>
        <pt x="84" y="-90" on="0"/>
        <pt x="94" y="-101" on="0"/>
        <pt x="94" y="-109" on="1"/>
        <pt x="94" y="-116" on="0"/>
        <pt x="84" y="-127" on="0"/>
      </contour>
      <contour>
        <pt x="0" y="-242" on="1"/>
        <pt x="-18" y="-242" on="0"/>
        <pt x="-18" y="-224" on="1"/>
        <pt x="-18" y="-205" on="0"/>
        <pt x="0" y="-205" on="1"/>
        <pt x="7" y="-205" on="0"/>
        <pt x="17" y="-216" on="0"/>
        <pt x="17" y="-224" on="1"/>
        <pt x="17" y="-231" on="0"/>
        <pt x="7" y="-242" on="0"/>
      </contour>
    </TTGlyph>
    <TTGlyph name="uni05B7" xMin="-117" yMin="-113" xMax="119" yMax="-99">
      <contour>
        <pt x="-117" y="-113" on="1"/>
        <pt x="-117" y="-99" on="1"/>
        <pt x="119" y="-99" on="1"/>
        <pt x="119" y="-113" on="1"/>
      </contour>
    </TTGlyph>
    <TTGlyph name="uni05B8" xMin="-117" yMin="-247" xMax="119" yMax="-99">
      <contour>
        <pt x="-117" y="-113" on="1"/>
        <pt x="-117" y="-99" on="1"/>
        <pt x="119" y="-99" on="1"/>
        <pt x="119" y="-113" on="1"/>
        <pt x="7" y="-113" on="1"/>
        <pt x="7" y="-247" on="1"/>
        <pt x="-7" y="-247" on="1"/>
        <pt x="-6" y="-113" on="1"/>
      </contour>
    </TTGlyph>
    <TTGlyph name="uni05B8.narrow" xMin="-95" yMin="-247" xMax="97" yMax="-99">
      <contour>
        <pt x="-95" y="-113" on="1"/>
        <pt x="-95" y="-99" on="1"/>
        <pt x="97" y="-99" on="1"/>
        <pt x="97" y="-113" on="1"/>
        <pt x="7" y="-113" on="1"/>
        <pt x="7" y="-247" on="1"/>
        <pt x="-7" y="-247" on="1"/>
        <pt x="-6" y="-113" on="1"/>
      </contour>
    </TTGlyph>
    <TTGlyph name="uni05B9" xMin="-55" yMin="652" xMax="-20" yMax="688">
      <contour>
        <pt x="-37" y="652" on="1"/>
        <pt x="-55" y="652" on="0"/>
        <pt x="-55" y="670" on="1"/>
        <pt x="-55" y="688" on="0"/>
        <pt x="-37" y="688" on="1"/>
        <pt x="-30" y="688" on="0"/>
        <pt x="-20" y="678" on="0"/>
        <pt x="-20" y="670" on="1"/>
        <pt x="-20" y="662" on="0"/>
        <pt x="-30" y="652" on="0"/>
      </contour>
    </TTGlyph>
    <TTGlyph name="uni05BA" xMin="-55" yMin="652" xMax="-20" yMax="688">
      <contour>
        <pt x="-37" y="652" on="1"/>
        <pt x="-55" y="652" on="0"/>
        <pt x="-55" y="670" on="1"/>
        <pt x="-55" y="688" on="0"/>
        <pt x="-37" y="688" on="1"/>
        <pt x="-30" y="688" on="0"/>
        <pt x="-20" y="678" on="0"/>
        <pt x="-20" y="670" on="1"/>
        <pt x="-20" y="662" on="0"/>
        <pt x="-30" y="652" on="0"/>
      </contour>
    </TTGlyph>
    <TTGlyph name="uni05BB" xMin="-18" yMin="-323" xMax="151" yMax="-90">
      <contour>
        <pt x="0" y="-127" on="1"/>
        <pt x="-18" y="-127" on="0"/>
        <pt x="-18" y="-109" on="1"/>
        <pt x="-18" y="-90" on="0"/>
        <pt x="0" y="-90" on="1"/>
        <pt x="7" y="-90" on="0"/>
        <pt x="17" y="-101" on="0"/>
        <pt x="17" y="-109" on="1"/>
        <pt x="17" y="-116" on="0"/>
        <pt x="7" y="-127" on="0"/>
      </contour>
      <contour>
        <pt x="67" y="-225" on="1"/>
        <pt x="49" y="-225" on="0"/>
        <pt x="49" y="-207" on="1"/>
        <pt x="49" y="-188" on="0"/>
        <pt x="67" y="-188" on="1"/>
        <pt x="74" y="-188" on="0"/>
        <pt x="84" y="-199" on="0"/>
        <pt x="84" y="-207" on="1"/>
        <pt x="84" y="-214" on="0"/>
        <pt x="74" y="-225" on="0"/>
      </contour>
      <contour>
        <pt x="134" y="-323" on="1"/>
        <pt x="116" y="-323" on="0"/>
        <pt x="116" y="-305" on="1"/>
        <pt x="116" y="-286" on="0"/>
        <pt x="134" y="-286" on="1"/>
        <pt x="141" y="-286" on="0"/>
        <pt x="151" y="-297" on="0"/>
        <pt x="151" y="-305" on="1"/>
        <pt x="151" y="-312" on="0"/>
        <pt x="141" y="-323" on="0"/>
      </contour>
    </TTGlyph>
    <TTGlyph name="uni05BC" xMin="30" yMin="196" xMax="65" yMax="232">
      <contour>
        <pt x="48" y="196" on="1"/>
        <pt x="30" y="196" on="0"/>
        <pt x="30" y="214" on="1"/>
        <pt x="30" y="232" on="0"/>
        <pt x="48" y="232" on="1"/>
        <pt x="65" y="232" on="0"/>
        <pt x="65" y="214" on="1"/>
        <pt x="65" y="196" on="0"/>
      </contour>
    </TTGlyph>
    <TTGlyph name="uni05BE" xMin="69" yMin="540" xMax="289" yMax="556">
      <contour>
        <pt x="69" y="556" on="1"/>
        <pt x="289" y="556" on="1"/>
        <pt x="289" y="540" on="1"/>
        <pt x="69" y="540" on="1"/>
      </contour>
    </TTGlyph>
    <TTGlyph name="uni05BF" xMin="-117" yMin="641" xMax="119" yMax="655">
      <contour>
        <pt x="-117" y="641" on="1"/>
        <pt x="-117" y="655" on="1"/>
        <pt x="119" y="655" on="1"/>
        <pt x="119" y="641" on="1"/>
      </contour>
    </TTGlyph>
    <TTGlyph name="uni05C1" xMin="-90" yMin="652" xMax="-55" yMax="688">
      <contour>
        <pt x="-72" y="652" on="1"/>
        <pt x="-90" y="652" on="0"/>
        <pt x="-90" y="670" on="1"/>
        <pt x="-90" y="688" on="0"/>
        <pt x="-72" y="688" on="1"/>
        <pt x="-65" y="688" on="0"/>
        <pt x="-55" y="678" on="0"/>
        <pt x="-55" y="670" on="1"/>
        <pt x="-55" y="662" on="0"/>
        <pt x="-65" y="652" on="0"/>
      </contour>
    </TTGlyph>
    <TTGlyph name="uni05C2" xMin="71" yMin="652" xMax="106" yMax="688">
      <contour>
        <pt x="89" y="652" on="1"/>
        <pt x="71" y="652" on="0"/>
        <pt x="71" y="670" on="1"/>
        <pt x="71" y="688" on="0"/>
        <pt x="89" y="688" on="1"/>
        <pt x="96" y="688" on="0"/>
        <pt x="106" y="678" on="0"/>
        <pt x="106" y="670" on="1"/>
        <pt x="106" y="662" on="0"/>
        <pt x="96" y="652" on="0"/>
      </contour>
    </TTGlyph>
    <TTGlyph name="uni05D0" xMin="80" yMin="-3" xMax="606" yMax="563">
      <contour>
        <pt x="109" y="0" on="1"/>
        <pt x="109" y="80" on="0"/>
        <pt x="128" y="243" on="0"/>
        <pt x="173" y="382" on="0"/>
        <pt x="214" y="428" on="1"/>
        <pt x="184" y="456" on="0"/>
        <pt x="118" y="517" on="0"/>
        <pt x="80" y="552" on="1"/>
        <pt x="91" y="563" on="1"/>
        <pt x="163" y="496" on="0"/>
        <pt x="276" y="392" on="0"/>
        <pt x="366" y="304" on="0"/>
        <pt x="442" y="224" on="0"/>
        <pt x="476" y="182" on="1"/>
        <pt x="510" y="233" on="0"/>
        <pt x="549" y="360" on="0"/>
        <pt x="566" y="494" on="0"/>
        <pt x="566" y="556" on="1"/>
        <pt x="582" y="556" on="1"/>
        <pt x="582" y="489" on="0"/>
        <pt x="563" y="351" on="0"/>
        <pt x="521" y="222" on="0"/>
        <pt x="486" y="171" on="1"/>
        <pt x="515" y="135" on="0"/>
        <pt x="573" y="54" on="0"/>
        <pt x="606" y="6" on="1"/>
        <pt x="593" y="-3" on="1"/>
        <pt x="549" y="63" on="0"/>
        <pt x="469" y="167" on="0"/>
        <pt x="386" y="260" on="0"/>
        <pt x="288" y="358" on="0"/>
        <pt x="224" y="418" on="1"/>
        <pt x="185" y="373" on="0"/>
        <pt x="142" y="236" on="0"/>
        <pt x="125" y="78" on="0"/>
        <pt x="125" y="0" on="1"/>
      </contour>
    </TTGlyph>
    <TTGlyph name="uni05D0.forDagesh" xMin="80" yMin="-3" xMax="606" yMax="563">
      <contour>
        <pt x="109" y="0" on="1"/>
        <pt x="109" y="80" on="0"/>
        <pt x="128" y="243" on="0"/>
        <pt x="173" y="382" on="0"/>
        <pt x="214" y="428" on="1"/>
        <pt x="184" y="456" on="0"/>
        <pt x="118" y="517" on="0"/>
        <pt x="80" y="552" on="1"/>
        <pt x="91" y="563" on="1"/>
        <pt x="163" y="496" on="0"/>
        <pt x="276" y="392" on="0"/>
        <pt x="366" y="304" on="0"/>
        <pt x="442" y="224" on="0"/>
        <pt x="476" y="182" on="1"/>
        <pt x="510" y="233" on="0"/>
        <pt x="549" y="360" on="0"/>
        <pt x="566" y="494" on="0"/>
        <pt x="566" y="556" on="1"/>
        <pt x="582" y="556" on="1"/>
        <pt x="582" y="489" on="0"/>
        <pt x="563" y="351" on="0"/>
        <pt x="521" y="222" on="0"/>
        <pt x="486" y="171" on="1"/>
        <pt x="515" y="135" on="0"/>
        <pt x="573" y="54" on="0"/>
        <pt x="606" y="6" on="1"/>
        <pt x="593" y="-3" on="1"/>
        <pt x="549" y="63" on="0"/>
        <pt x="469" y="167" on="0"/>
        <pt x="386" y="260" on="0"/>
        <pt x="288" y="358" on="0"/>
        <pt x="224" y="418" on="1"/>
        <pt x="185" y="373" on="0"/>
        <pt x="142" y="236" on="0"/>
        <pt x="125" y="78" on="0"/>
        <pt x="125" y="0" on="1"/>
      </contour>
    </TTGlyph>
    <TTGlyph name="uni05D1" xMin="73" yMin="0" xMax="523" yMax="560">
      <contour>
        <pt x="73" y="0" on="1"/>
        <pt x="73" y="16" on="1"/>
        <pt x="440" y="16" on="1"/>
        <pt x="440" y="332" on="1"/>
        <pt x="440" y="444" on="0"/>
        <pt x="347" y="544" on="0"/>
        <pt x="242" y="544" on="1"/>
        <pt x="73" y="544" on="1"/>
        <pt x="73" y="560" on="1"/>
        <pt x="242" y="560" on="1"/>
        <pt x="359" y="560" on="0"/>
        <pt x="456" y="446" on="0"/>
        <pt x="456" y="332" on="1"/>
        <pt x="456" y="16" on="1"/>
        <pt x="523" y="16" on="1"/>
        <pt x="523" y="0" on="1"/>
      </contour>
    </TTGlyph>
    <TTGlyph name="uni05D2" xMin="58" yMin="-2" xMax="264" yMax="561">
      <contour>
        <pt x="61" y="-2" on="1"/>
        <pt x="58" y="15" on="1"/>
        <pt x="84" y="21" on="0"/>
        <pt x="136" y="67" on="0"/>
        <pt x="183" y="132" on="0"/>
        <pt x="223" y="203" on="0"/>
        <pt x="238" y="233" on="1"/>
        <pt x="237" y="252" on="1"/>
        <pt x="234" y="321" on="0"/>
        <pt x="225" y="423" on="0"/>
        <pt x="199" y="494" on="0"/>
        <pt x="143" y="536" on="0"/>
        <pt x="92" y="545" on="1"/>
        <pt x="95" y="561" on="1"/>
        <pt x="148" y="552" on="0"/>
        <pt x="210" y="506" on="0"/>
        <pt x="240" y="432" on="0"/>
        <pt x="250" y="325" on="0"/>
        <pt x="253" y="255" on="1"/>
        <pt x="264" y="0" on="1"/>
        <pt x="248" y="0" on="1"/>
        <pt x="238" y="211" on="1"/>
        <pt x="225" y="180" on="0"/>
        <pt x="186" y="111" on="0"/>
        <pt x="139" y="49" on="0"/>
        <pt x="87" y="5" on="0"/>
      </contour>
    </TTGlyph>
    <TTGlyph name="uni05D3" xMin="44" yMin="3" xMax="469" yMax="559">
      <contour>
        <pt x="388" y="3" on="1"/>
        <pt x="388" y="543" on="1"/>
        <pt x="44" y="543" on="1"/>
        <pt x="44" y="559" on="1"/>
        <pt x="469" y="559" on="1"/>
        <pt x="469" y="543" on="1"/>
        <pt x="404" y="543" on="1"/>
        <pt x="404" y="3" on="1"/>
      </contour>
    </TTGlyph>
    <TTGlyph name="uni05D4" xMin="92" yMin="0" xMax="527" yMax="557">
      <contour>
        <pt x="510" y="0" on="1"/>
        <pt x="511" y="328" on="1"/>
        <pt x="511" y="442" on="0"/>
        <pt x="425" y="541" on="0"/>
        <pt x="320" y="541" on="1"/>
        <pt x="92" y="541" on="1"/>
        <pt x="92" y="557" on="1"/>
        <pt x="320" y="557" on="1"/>
        <pt x="433" y="557" on="0"/>
        <pt x="527" y="445" on="0"/>
        <pt x="527" y="328" on="1"/>
        <pt x="526" y="0" on="1"/>
      </contour>
      <contour>
        <pt x="95" y="0" on="1"/>
        <pt x="96" y="340" on="1"/>
        <pt x="112" y="340" on="1"/>
        <pt x="111" y="0" on="1"/>
      </contour>
    </TTGlyph>
    <TTGlyph name="uni05D5" xMin="74" yMin="-1" xMax="202" yMax="563">
      <contour>
        <pt x="186" y="-1" on="1"/>
        <pt x="186" y="382" on="1"/>
        <pt x="186" y="453" on="0"/>
        <pt x="132" y="531" on="0"/>
        <pt x="74" y="547" on="1"/>
        <pt x="76" y="563" on="1"/>
        <pt x="142" y="547" on="0"/>
        <pt x="202" y="459" on="0"/>
        <pt x="202" y="382" on="1"/>
        <pt x="202" y="-1" on="1"/>
      </contour>
    </TTGlyph>
    <TTGlyph name="uni05D6" xMin="69" yMin="-3" xMax="269" yMax="559">
      <contour>
        <pt x="204" y="-3" on="1"/>
        <pt x="188" y="46" on="0"/>
        <pt x="159" y="198" on="0"/>
        <pt x="156" y="281" on="1"/>
        <pt x="152" y="356" on="0"/>
        <pt x="166" y="497" on="0"/>
        <pt x="177" y="543" on="1"/>
        <pt x="69" y="543" on="1"/>
        <pt x="69" y="559" on="1"/>
        <pt x="269" y="559" on="1"/>
        <pt x="269" y="543" on="1"/>
        <pt x="191" y="543" on="1"/>
        <pt x="181" y="502" on="0"/>
        <pt x="169" y="364" on="0"/>
        <pt x="172" y="282" on="1"/>
        <pt x="176" y="195" on="0"/>
        <pt x="205" y="51" on="0"/>
        <pt x="218" y="5" on="1"/>
      </contour>
    </TTGlyph>
    <TTGlyph name="uni05D7" xMin="92" yMin="0" xMax="530" yMax="560">
      <contour>
        <pt x="92" y="0" on="1"/>
        <pt x="92" y="560" on="1"/>
        <pt x="324" y="560" on="1"/>
        <pt x="436" y="560" on="0"/>
        <pt x="530" y="451" on="0"/>
        <pt x="530" y="332" on="1"/>
        <pt x="530" y="0" on="1"/>
        <pt x="514" y="0" on="1"/>
        <pt x="514" y="332" on="1"/>
        <pt x="514" y="443" on="0"/>
        <pt x="430" y="544" on="0"/>
        <pt x="324" y="544" on="1"/>
        <pt x="108" y="544" on="1"/>
        <pt x="108" y="0" on="1"/>
      </contour>
    </TTGlyph>
    <TTGlyph name="uni05D8" xMin="92" yMin="-11" xMax="586" yMax="560">
      <contour>
        <pt x="328" y="-11" on="1"/>
        <pt x="258" y="-11" on="0"/>
        <pt x="152" y="66" on="0"/>
        <pt x="92" y="217" on="0"/>
        <pt x="92" y="328" on="1"/>
        <pt x="92" y="556" on="1"/>
        <pt x="108" y="556" on="1"/>
        <pt x="108" y="328" on="1"/>
        <pt x="108" y="237" on="0"/>
        <pt x="159" y="90" on="0"/>
        <pt x="257" y="5" on="0"/>
        <pt x="328" y="5" on="1"/>
        <pt x="451" y="5" on="0"/>
        <pt x="570" y="153" on="0"/>
        <pt x="570" y="278" on="1"/>
        <pt x="570" y="355" on="0"/>
        <pt x="538" y="475" on="0"/>
        <pt x="470" y="544" on="0"/>
        <pt x="417" y="544" on="1"/>
        <pt x="389" y="544" on="0"/>
        <pt x="321" y="521" on="0"/>
        <pt x="296" y="507" on="1"/>
        <pt x="289" y="520" on="1"/>
        <pt x="315" y="535" on="0"/>
        <pt x="388" y="560" on="0"/>
        <pt x="417" y="560" on="1"/>
        <pt x="476" y="560" on="0"/>
        <pt x="551" y="485" on="0"/>
        <pt x="586" y="358" on="0"/>
        <pt x="586" y="278" on="1"/>
        <pt x="586" y="144" on="0"/>
        <pt x="456" y="-11" on="0"/>
      </contour>
    </TTGlyph>
    <TTGlyph name="uni05D9" xMin="69" yMin="232" xMax="268" yMax="564">
      <contour>
        <pt x="242" y="232" on="1"/>
        <pt x="227" y="236" on="1"/>
        <pt x="236" y="272" on="0"/>
        <pt x="247" y="323" on="0"/>
        <pt x="252" y="365" on="0"/>
        <pt x="252" y="390" on="1"/>
        <pt x="252" y="462" on="0"/>
        <pt x="153" y="548" on="0"/>
        <pt x="69" y="548" on="1"/>
        <pt x="70" y="564" on="1"/>
        <pt x="161" y="564" on="0"/>
        <pt x="268" y="471" on="0"/>
        <pt x="268" y="389" on="1"/>
        <pt x="268" y="365" on="0"/>
        <pt x="262" y="321" on="0"/>
        <pt x="251" y="269" on="0"/>
      </contour>
    </TTGlyph>
    <TTGlyph name="uni05DA" xMin="86" yMin="-128" xMax="477" yMax="557">
      <contour>
        <pt x="396" y="-128" on="1"/>
        <pt x="396" y="541" on="1"/>
        <pt x="86" y="541" on="1"/>
        <pt x="86" y="557" on="1"/>
        <pt x="396" y="557" on="1"/>
        <pt x="396" y="557" on="1"/>
        <pt x="412" y="557" on="1"/>
        <pt x="412" y="557" on="1"/>
        <pt x="477" y="557" on="1"/>
        <pt x="477" y="541" on="1"/>
        <pt x="412" y="541" on="1"/>
        <pt x="412" y="-128" on="1"/>
      </contour>
    </TTGlyph>
    <TTGlyph name="uni05DB" xMin="67" yMin="0" xMax="449" yMax="560">
      <contour>
        <pt x="67" y="0" on="1"/>
        <pt x="67" y="16" on="1"/>
        <pt x="220" y="16" on="1"/>
        <pt x="295" y="16" on="0"/>
        <pt x="389" y="82" on="0"/>
        <pt x="433" y="200" on="0"/>
        <pt x="433" y="280" on="1"/>
        <pt x="433" y="413" on="0"/>
        <pt x="310" y="544" on="0"/>
        <pt x="178" y="544" on="1"/>
        <pt x="67" y="544" on="1"/>
        <pt x="67" y="560" on="1"/>
        <pt x="178" y="560" on="1"/>
        <pt x="319" y="560" on="0"/>
        <pt x="449" y="417" on="0"/>
        <pt x="449" y="280" on="1"/>
        <pt x="449" y="152" on="0"/>
        <pt x="337" y="0" on="0"/>
        <pt x="220" y="0" on="1"/>
      </contour>
    </TTGlyph>
    <TTGlyph name="uni05DC" xMin="75" yMin="-2" xMax="477" yMax="730">
      <contour>
        <pt x="200" y="-2" on="1"/>
        <pt x="196" y="13" on="1"/>
        <pt x="276" y="45" on="0"/>
        <pt x="395" y="151" on="0"/>
        <pt x="461" y="276" on="0"/>
        <pt x="461" y="338" on="1"/>
        <pt x="461" y="449" on="0"/>
        <pt x="340" y="541" on="0"/>
        <pt x="232" y="544" on="1"/>
        <pt x="75" y="540" on="1"/>
        <pt x="75" y="730" on="1"/>
        <pt x="91" y="730" on="1"/>
        <pt x="91" y="556" on="1"/>
        <pt x="236" y="560" on="1"/>
        <pt x="349" y="557" on="0"/>
        <pt x="477" y="456" on="0"/>
        <pt x="477" y="341" on="1"/>
        <pt x="477" y="273" on="0"/>
        <pt x="409" y="141" on="0"/>
        <pt x="284" y="32" on="0"/>
      </contour>
    </TTGlyph>
    <TTGlyph name="uni05DD" xMin="92" yMin="0" xMax="541" yMax="555">
      <contour>
        <pt x="92" y="0" on="1"/>
        <pt x="92" y="555" on="1"/>
        <pt x="336" y="555" on="1"/>
        <pt x="440" y="555" on="0"/>
        <pt x="541" y="454" on="0"/>
        <pt x="541" y="353" on="1"/>
        <pt x="541" y="0" on="1"/>
      </contour>
      <contour>
        <pt x="108" y="16" on="1"/>
        <pt x="525" y="16" on="1"/>
        <pt x="525" y="353" on="1"/>
        <pt x="525" y="449" on="0"/>
        <pt x="433" y="539" on="0"/>
        <pt x="336" y="539" on="1"/>
        <pt x="108" y="539" on="1"/>
      </contour>
    </TTGlyph>
    <TTGlyph name="uni05DE" xMin="69" yMin="-1" xMax="607" yMax="571">
      <contour>
        <pt x="387" y="-1" on="1"/>
        <pt x="370" y="-1" on="0"/>
        <pt x="343" y="1" on="0"/>
        <pt x="331" y="3" on="1"/>
        <pt x="334" y="19" on="1"/>
        <pt x="345" y="17" on="0"/>
        <pt x="372" y="15" on="0"/>
        <pt x="388" y="15" on="1"/>
        <pt x="457" y="15" on="0"/>
        <pt x="547" y="88" on="0"/>
        <pt x="591" y="210" on="0"/>
        <pt x="591" y="286" on="1"/>
        <pt x="591" y="420" on="0"/>
        <pt x="495" y="555" on="0"/>
        <pt x="393" y="555" on="1"/>
        <pt x="335" y="555" on="0"/>
        <pt x="249" y="488" on="0"/>
        <pt x="189" y="380" on="0"/>
        <pt x="149" y="249" on="0"/>
        <pt x="126" y="119" on="0"/>
        <pt x="120" y="66" on="1"/>
        <pt x="112" y="-1" on="1"/>
        <pt x="97" y="-1" on="1"/>
        <pt x="104" y="69" on="1"/>
        <pt x="110" y="121" on="0"/>
        <pt x="132" y="246" on="0"/>
        <pt x="169" y="372" on="0"/>
        <pt x="197" y="426" on="1"/>
        <pt x="173" y="457" on="0"/>
        <pt x="104" y="523" on="0"/>
        <pt x="69" y="548" on="1"/>
        <pt x="76" y="561" on="1"/>
        <pt x="113" y="536" on="0"/>
        <pt x="181" y="470" on="0"/>
        <pt x="205" y="440" on="1"/>
        <pt x="237" y="497" on="0"/>
        <pt x="329" y="570" on="0"/>
        <pt x="393" y="571" on="1"/>
        <pt x="504" y="571" on="0"/>
        <pt x="607" y="425" on="0"/>
        <pt x="607" y="286" on="1"/>
        <pt x="607" y="204" on="0"/>
        <pt x="560" y="74" on="0"/>
        <pt x="462" y="-1" on="0"/>
      </contour>
    </TTGlyph>
    <TTGlyph name="uni05DF" xMin="75" yMin="-128" xMax="192" yMax="561">
      <contour>
        <pt x="176" y="-128" on="1"/>
        <pt x="176" y="368" on="1"/>
        <pt x="176" y="439" on="0"/>
        <pt x="130" y="527" on="0"/>
        <pt x="75" y="545" on="1"/>
        <pt x="81" y="561" on="1"/>
        <pt x="141" y="542" on="0"/>
        <pt x="192" y="442" on="0"/>
        <pt x="192" y="368" on="1"/>
        <pt x="192" y="-128" on="1"/>
      </contour>
    </TTGlyph>
    <TTGlyph name="uni05E0" xMin="77" yMin="0" xMax="286" yMax="561">
      <contour>
        <pt x="77" y="0" on="1"/>
        <pt x="77" y="16" on="1"/>
        <pt x="270" y="16" on="1"/>
        <pt x="270" y="255" on="1"/>
        <pt x="270" y="375" on="0"/>
        <pt x="189" y="527" on="0"/>
        <pt x="96" y="545" on="1"/>
        <pt x="99" y="561" on="1"/>
        <pt x="196" y="543" on="0"/>
        <pt x="286" y="384" on="0"/>
        <pt x="286" y="255" on="1"/>
        <pt x="286" y="0" on="1"/>
      </contour>
    </TTGlyph>
    <TTGlyph name="uni05E1" xMin="70" yMin="-4" xMax="592" yMax="560">
      <contour>
        <pt x="336" y="-4" on="1"/>
        <pt x="278" y="-4" on="0"/>
        <pt x="188" y="52" on="0"/>
        <pt x="124" y="145" on="0"/>
        <pt x="90" y="259" on="0"/>
        <pt x="90" y="316" on="1"/>
        <pt x="90" y="350" on="0"/>
        <pt x="107" y="431" on="0"/>
        <pt x="135" y="512" on="0"/>
        <pt x="153" y="544" on="1"/>
        <pt x="70" y="544" on="1"/>
        <pt x="70" y="560" on="1"/>
        <pt x="356" y="560" on="1"/>
        <pt x="426" y="560" on="0"/>
        <pt x="532" y="498" on="0"/>
        <pt x="592" y="392" on="0"/>
        <pt x="592" y="327" on="1"/>
        <pt x="592" y="233" on="0"/>
        <pt x="530" y="83" on="0"/>
        <pt x="415" y="-4" on="0"/>
      </contour>
      <contour>
        <pt x="106" y="316" on="1"/>
        <pt x="106" y="262" on="0"/>
        <pt x="138" y="153" on="0"/>
        <pt x="198" y="65" on="0"/>
        <pt x="283" y="12" on="0"/>
        <pt x="336" y="12" on="1"/>
        <pt x="411" y="12" on="0"/>
        <pt x="519" y="96" on="0"/>
        <pt x="576" y="239" on="0"/>
        <pt x="576" y="327" on="1"/>
        <pt x="576" y="388" on="0"/>
        <pt x="520" y="486" on="0"/>
        <pt x="421" y="544" on="0"/>
        <pt x="356" y="544" on="1"/>
        <pt x="169" y="544" on="1"/>
        <pt x="150" y="512" on="0"/>
        <pt x="122" y="433" on="0"/>
        <pt x="106" y="351" on="0"/>
      </contour>
    </TTGlyph>
    <TTGlyph name="uni05E2" xMin="67" yMin="-49" xMax="482" yMax="560">
      <contour>
        <pt x="71" y="-49" on="1"/>
        <pt x="67" y="-33" on="1"/>
        <pt x="109" y="-21" on="0"/>
        <pt x="191" y="12" on="0"/>
        <pt x="229" y="33" on="1"/>
        <pt x="200" y="139" on="0"/>
        <pt x="157" y="293" on="0"/>
        <pt x="122" y="410" on="0"/>
        <pt x="87" y="507" on="0"/>
        <pt x="68" y="554" on="1"/>
        <pt x="84" y="560" on="1"/>
        <pt x="103" y="512" on="0"/>
        <pt x="137" y="414" on="0"/>
        <pt x="172" y="297" on="0"/>
        <pt x="215" y="144" on="0"/>
        <pt x="242" y="41" on="1"/>
        <pt x="289" y="68" on="0"/>
        <pt x="368" y="137" on="0"/>
        <pt x="394" y="176" on="1"/>
        <pt x="443" y="250" on="0"/>
        <pt x="466" y="435" on="0"/>
        <pt x="465" y="558" on="1"/>
        <pt x="481" y="558" on="1"/>
        <pt x="482" y="431" on="0"/>
        <pt x="456" y="244" on="0"/>
        <pt x="407" y="168" on="1"/>
        <pt x="373" y="116" on="0"/>
        <pt x="268" y="33" on="0"/>
        <pt x="140" y="-29" on="0"/>
      </contour>
    </TTGlyph>
    <TTGlyph name="uni05E3" xMin="69" yMin="-128" xMax="477" yMax="564">
      <contour>
        <pt x="461" y="-128" on="1"/>
        <pt x="461" y="307" on="1"/>
        <pt x="461" y="422" on="0"/>
        <pt x="358" y="548" on="0"/>
        <pt x="249" y="548" on="1"/>
        <pt x="199" y="548" on="0"/>
        <pt x="125" y="502" on="0"/>
        <pt x="85" y="423" on="0"/>
        <pt x="85" y="375" on="1"/>
        <pt x="85" y="333" on="0"/>
        <pt x="123" y="265" on="0"/>
        <pt x="187" y="224" on="0"/>
        <pt x="226" y="224" on="1"/>
        <pt x="224" y="208" on="1"/>
        <pt x="180" y="208" on="0"/>
        <pt x="109" y="253" on="0"/>
        <pt x="69" y="329" on="0"/>
        <pt x="69" y="375" on="1"/>
        <pt x="69" y="429" on="0"/>
        <pt x="115" y="514" on="0"/>
        <pt x="197" y="564" on="0"/>
        <pt x="249" y="564" on="1"/>
        <pt x="361" y="564" on="0"/>
        <pt x="477" y="433" on="0"/>
        <pt x="477" y="307" on="1"/>
        <pt x="477" y="-128" on="1"/>
      </contour>
    </TTGlyph>
    <TTGlyph name="uni05E4" xMin="69" yMin="-3" xMax="529" yMax="560">
      <contour>
        <pt x="297" y="-3" on="1"/>
        <pt x="243" y="-3" on="0"/>
        <pt x="154" y="17" on="0"/>
        <pt x="104" y="41" on="1"/>
        <pt x="109" y="56" on="1"/>
        <pt x="147" y="38" on="0"/>
        <pt x="230" y="13" on="0"/>
        <pt x="297" y="13" on="1"/>
        <pt x="365" y="13" on="0"/>
        <pt x="461" y="85" on="0"/>
        <pt x="513" y="206" on="0"/>
        <pt x="513" y="281" on="1"/>
        <pt x="513" y="401" on="0"/>
        <pt x="396" y="544" on="0"/>
        <pt x="283" y="544" on="1"/>
        <pt x="227" y="544" on="0"/>
        <pt x="137" y="506" on="0"/>
        <pt x="85" y="433" on="0"/>
        <pt x="85" y="381" on="1"/>
        <pt x="85" y="342" on="0"/>
        <pt x="131" y="287" on="0"/>
        <pt x="206" y="259" on="0"/>
        <pt x="250" y="259" on="1"/>
        <pt x="248" y="243" on="1"/>
        <pt x="203" y="243" on="0"/>
        <pt x="120" y="274" on="0"/>
        <pt x="69" y="336" on="0"/>
        <pt x="69" y="381" on="1"/>
        <pt x="69" y="436" on="0"/>
        <pt x="125" y="516" on="0"/>
        <pt x="222" y="560" on="0"/>
        <pt x="283" y="560" on="1"/>
        <pt x="362" y="560" on="0"/>
        <pt x="472" y="491" on="0"/>
        <pt x="529" y="366" on="0"/>
        <pt x="529" y="281" on="1"/>
        <pt x="529" y="202" on="0"/>
        <pt x="474" y="73" on="0"/>
        <pt x="370" y="-3" on="0"/>
      </contour>
    </TTGlyph>
    <TTGlyph name="uni05E5" xMin="68" yMin="-128" xMax="384" yMax="563">
      <contour>
        <pt x="172" y="-128" on="1"/>
        <pt x="172" y="153" on="1"/>
        <pt x="172" y="268" on="0"/>
        <pt x="121" y="462" on="0"/>
        <pt x="68" y="556" on="1"/>
        <pt x="82" y="563" on="1"/>
        <pt x="129" y="481" on="0"/>
        <pt x="180" y="310" on="0"/>
        <pt x="186" y="212" on="1"/>
        <pt x="243" y="233" on="0"/>
        <pt x="324" y="336" on="0"/>
        <pt x="368" y="478" on="0"/>
        <pt x="368" y="556" on="1"/>
        <pt x="384" y="556" on="1"/>
        <pt x="384" y="471" on="0"/>
        <pt x="335" y="321" on="0"/>
        <pt x="247" y="215" on="0"/>
        <pt x="187" y="195" on="1"/>
        <pt x="188" y="175" on="0"/>
        <pt x="188" y="153" on="1"/>
        <pt x="188" y="-128" on="1"/>
      </contour>
    </TTGlyph>
    <TTGlyph name="uni05E6" xMin="62" yMin="0" xMax="488" yMax="563">
      <contour>
        <pt x="98" y="0" on="1"/>
        <pt x="98" y="16" on="1"/>
        <pt x="454" y="16" on="1"/>
        <pt x="451" y="44" on="0"/>
        <pt x="402" y="115" on="0"/>
        <pt x="330" y="195" on="0"/>
        <pt x="294" y="234" on="1"/>
        <pt x="249" y="282" on="0"/>
        <pt x="170" y="375" on="0"/>
        <pt x="97" y="483" on="0"/>
        <pt x="62" y="554" on="1"/>
        <pt x="75" y="563" on="1"/>
        <pt x="109" y="493" on="0"/>
        <pt x="180" y="386" on="0"/>
        <pt x="259" y="294" on="0"/>
        <pt x="303" y="247" on="1"/>
        <pt x="347" y="275" on="0"/>
        <pt x="418" y="379" on="0"/>
        <pt x="465" y="503" on="0"/>
        <pt x="472" y="561" on="1"/>
        <pt x="488" y="559" on="1"/>
        <pt x="480" y="497" on="0"/>
        <pt x="431" y="370" on="0"/>
        <pt x="358" y="265" on="0"/>
        <pt x="313" y="237" on="1"/>
        <pt x="351" y="195" on="0"/>
        <pt x="424" y="113" on="0"/>
        <pt x="471" y="39" on="0"/>
        <pt x="471" y="9" on="1"/>
        <pt x="471" y="0" on="1"/>
      </contour>
    </TTGlyph>
    <TTGlyph name="uni05E7" xMin="92" yMin="-128" xMax="522" yMax="555">
      <contour>
        <pt x="294" y="-7" on="1"/>
        <pt x="288" y="9" on="1"/>
        <pt x="347" y="35" on="0"/>
        <pt x="446" y="129" on="0"/>
        <pt x="506" y="249" on="0"/>
        <pt x="506" y="312" on="1"/>
        <pt x="506" y="418" on="0"/>
        <pt x="391" y="539" on="0"/>
        <pt x="279" y="539" on="1"/>
        <pt x="92" y="539" on="1"/>
        <pt x="92" y="555" on="1"/>
        <pt x="279" y="555" on="1"/>
        <pt x="400" y="555" on="0"/>
        <pt x="522" y="422" on="0"/>
        <pt x="522" y="312" on="1"/>
        <pt x="522" y="245" on="0"/>
        <pt x="459" y="119" on="0"/>
        <pt x="355" y="20" on="0"/>
      </contour>
      <contour>
        <pt x="103" y="-128" on="1"/>
        <pt x="103" y="348" on="1"/>
        <pt x="119" y="348" on="1"/>
        <pt x="119" y="-128" on="1"/>
      </contour>
    </TTGlyph>
    <TTGlyph name="uni05E8" xMin="57" yMin="0" xMax="458" yMax="556">
      <contour>
        <pt x="442" y="0" on="1"/>
        <pt x="442" y="365" on="1"/>
        <pt x="442" y="447" on="0"/>
        <pt x="345" y="540" on="0"/>
        <pt x="266" y="540" on="1"/>
        <pt x="57" y="540" on="1"/>
        <pt x="57" y="556" on="1"/>
        <pt x="266" y="556" on="1"/>
        <pt x="355" y="556" on="0"/>
        <pt x="458" y="450" on="0"/>
        <pt x="458" y="365" on="1"/>
        <pt x="458" y="0" on="1"/>
      </contour>
    </TTGlyph>
    <TTGlyph name="uni05E9" xMin="73" yMin="-3" xMax="651" yMax="556">
      <contour>
        <pt x="363" y="-3" on="1"/>
        <pt x="292" y="-3" on="0"/>
        <pt x="183" y="80" on="0"/>
        <pt x="110" y="232" on="0"/>
        <pt x="73" y="436" on="0"/>
        <pt x="74" y="556" on="1"/>
        <pt x="89" y="556" on="1"/>
        <pt x="89" y="451" on="0"/>
        <pt x="117" y="270" on="0"/>
        <pt x="145" y="200" on="1"/>
        <pt x="193" y="213" on="0"/>
        <pt x="275" y="282" on="0"/>
        <pt x="303" y="325" on="1"/>
        <pt x="334" y="374" on="0"/>
        <pt x="367" y="492" on="0"/>
        <pt x="367" y="556" on="1"/>
        <pt x="383" y="556" on="1"/>
        <pt x="383" y="490" on="0"/>
        <pt x="349" y="368" on="0"/>
        <pt x="316" y="317" on="1"/>
        <pt x="287" y="272" on="0"/>
        <pt x="200" y="200" on="0"/>
        <pt x="150" y="187" on="1"/>
        <pt x="184" y="105" on="0"/>
        <pt x="292" y="13" on="0"/>
        <pt x="363" y="13" on="1"/>
        <pt x="450" y="13" on="0"/>
        <pt x="565" y="143" on="0"/>
        <pt x="628" y="386" on="0"/>
        <pt x="635" y="556" on="1"/>
        <pt x="651" y="556" on="1"/>
        <pt x="644" y="381" on="0"/>
        <pt x="578" y="131" on="0"/>
        <pt x="456" y="-3" on="0"/>
      </contour>
    </TTGlyph>
    <TTGlyph name="uni05E9.forDagesh" xMin="68" yMin="-3" xMax="646" yMax="556">
      <contour>
        <pt x="357" y="-3" on="1"/>
        <pt x="286" y="-3" on="0"/>
        <pt x="177" y="80" on="0"/>
        <pt x="104" y="232" on="0"/>
        <pt x="68" y="436" on="0"/>
        <pt x="68" y="556" on="1"/>
        <pt x="83" y="556" on="1"/>
        <pt x="83" y="451" on="0"/>
        <pt x="111" y="270" on="0"/>
        <pt x="139" y="200" on="1"/>
        <pt x="187" y="213" on="0"/>
        <pt x="269" y="282" on="0"/>
        <pt x="297" y="325" on="1"/>
        <pt x="329" y="374" on="0"/>
        <pt x="361" y="492" on="0"/>
        <pt x="361" y="556" on="1"/>
        <pt x="377" y="556" on="1"/>
        <pt x="377" y="490" on="0"/>
        <pt x="344" y="368" on="0"/>
        <pt x="310" y="317" on="1"/>
        <pt x="281" y="272" on="0"/>
        <pt x="194" y="200" on="0"/>
        <pt x="144" y="187" on="1"/>
        <pt x="179" y="105" on="0"/>
        <pt x="286" y="13" on="0"/>
        <pt x="357" y="13" on="1"/>
        <pt x="444" y="13" on="0"/>
        <pt x="559" y="143" on="0"/>
        <pt x="622" y="386" on="0"/>
        <pt x="630" y="556" on="1"/>
        <pt x="646" y="556" on="1"/>
        <pt x="638" y="381" on="0"/>
        <pt x="572" y="131" on="0"/>
        <pt x="450" y="-3" on="0"/>
      </contour>
    </TTGlyph>
    <TTGlyph name="uni05EA" xMin="69" yMin="0" xMax="565" yMax="560">
      <contour>
        <pt x="69" y="3" on="1"/>
        <pt x="69" y="19" on="1"/>
        <pt x="167" y="19" on="1"/>
        <pt x="158" y="83" on="0"/>
        <pt x="151" y="222" on="0"/>
        <pt x="154" y="293" on="1"/>
        <pt x="157" y="358" on="0"/>
        <pt x="175" y="485" on="0"/>
        <pt x="188" y="544" on="1"/>
        <pt x="89" y="544" on="1"/>
        <pt x="89" y="560" on="1"/>
        <pt x="358" y="560" on="1"/>
        <pt x="434" y="560" on="0"/>
        <pt x="524" y="494" on="0"/>
        <pt x="565" y="375" on="0"/>
        <pt x="565" y="297" on="1"/>
        <pt x="565" y="0" on="1"/>
        <pt x="549" y="0" on="1"/>
        <pt x="549" y="297" on="1"/>
        <pt x="549" y="410" on="0"/>
        <pt x="462" y="544" on="0"/>
        <pt x="358" y="544" on="1"/>
        <pt x="203" y="544" on="1"/>
        <pt x="177" y="425" on="0"/>
        <pt x="170" y="292" on="1"/>
        <pt x="164" y="145" on="0"/>
        <pt x="186" y="3" on="1"/>
      </contour>
    </TTGlyph>
    <TTGlyph name="uni05F3" xMin="73" yMin="365" xMax="163" yMax="600">
      <contour>
        <pt x="73" y="365" on="1"/>
        <pt x="145" y="600" on="1"/>
        <pt x="163" y="600" on="1"/>
        <pt x="88" y="365" on="1"/>
      </contour>
    </TTGlyph>
    <TTGlyph name="uni05F4" xMin="73" yMin="365" xMax="301" yMax="600">
      <contour>
        <pt x="211" y="365" on="1"/>
        <pt x="283" y="600" on="1"/>
        <pt x="301" y="600" on="1"/>
        <pt x="226" y="365" on="1"/>
      </contour>
      <contour>
        <pt x="73" y="365" on="1"/>
        <pt x="145" y="600" on="1"/>
        <pt x="163" y="600" on="1"/>
        <pt x="88" y="365" on="1"/>
      </contour>
    </TTGlyph>
    <TTGlyph name="uni20AA" xMin="105" yMin="0" xMax="637" yMax="556">
      <contour>
        <pt x="261" y="0" on="1"/>
        <pt x="261" y="396" on="1"/>
        <pt x="277" y="396" on="1"/>
        <pt x="277" y="17" on="1"/>
        <pt x="415" y="17" on="1"/>
        <pt x="521" y="17" on="0"/>
        <pt x="621" y="135" on="0"/>
        <pt x="621" y="258" on="1"/>
        <pt x="621" y="556" on="1"/>
        <pt x="637" y="556" on="1"/>
        <pt x="637" y="258" on="1"/>
        <pt x="637" y="130" on="0"/>
        <pt x="529" y="0" on="0"/>
        <pt x="415" y="0" on="1"/>
      </contour>
      <contour>
        <pt x="105" y="0" on="1"/>
        <pt x="105" y="556" on="1"/>
        <pt x="247" y="556" on="1"/>
        <pt x="355" y="556" on="0"/>
        <pt x="460" y="425" on="0"/>
        <pt x="460" y="298" on="1"/>
        <pt x="460" y="166" on="1"/>
        <pt x="444" y="166" on="1"/>
        <pt x="444" y="298" on="1"/>
        <pt x="444" y="420" on="0"/>
        <pt x="347" y="540" on="0"/>
        <pt x="247" y="540" on="1"/>
        <pt x="121" y="540" on="1"/>
        <pt x="121" y="0" on="1"/>
      </contour>
    </TTGlyph>
    <TTGlyph name="uni2196" xMin="94" yMin="149" xMax="502" yMax="556">
      <contour>
        <pt x="96" y="246" on="1"/>
        <pt x="94" y="556" on="1"/>
        <pt x="405" y="554" on="1"/>
        <pt x="405" y="538" on="1"/>
        <pt x="121" y="541" on="1"/>
        <pt x="502" y="159" on="1"/>
        <pt x="491" y="149" on="1"/>
        <pt x="110" y="528" on="1"/>
        <pt x="112" y="246" on="1"/>
      </contour>
    </TTGlyph>
    <TTGlyph name="uni2197" xMin="76" yMin="148" xMax="484" yMax="556">
      <contour>
        <pt x="87" y="148" on="1"/>
        <pt x="76" y="159" on="1"/>
        <pt x="458" y="541" on="1"/>
        <pt x="173" y="538" on="1"/>
        <pt x="173" y="554" on="1"/>
        <pt x="484" y="556" on="1"/>
        <pt x="482" y="246" on="1"/>
        <pt x="466" y="246" on="1"/>
        <pt x="468" y="528" on="1"/>
      </contour>
    </TTGlyph>
    <TTGlyph name="uni2198" xMin="76" yMin="0" xMax="484" yMax="408">
      <contour>
        <pt x="173" y="2" on="1"/>
        <pt x="173" y="18" on="1"/>
        <pt x="458" y="15" on="1"/>
        <pt x="76" y="397" on="1"/>
        <pt x="87" y="408" on="1"/>
        <pt x="468" y="28" on="1"/>
        <pt x="466" y="310" on="1"/>
        <pt x="482" y="310" on="1"/>
        <pt x="484" y="0" on="1"/>
      </contour>
    </TTGlyph>
    <TTGlyph name="uni2199" xMin="93" yMin="0" xMax="501" yMax="408">
      <contour>
        <pt x="93" y="0" on="1"/>
        <pt x="95" y="311" on="1"/>
        <pt x="111" y="311" on="1"/>
        <pt x="109" y="28" on="1"/>
        <pt x="490" y="408" on="1"/>
        <pt x="501" y="397" on="1"/>
        <pt x="119" y="15" on="1"/>
        <pt x="404" y="18" on="1"/>
        <pt x="404" y="2" on="1"/>
      </contour>
    </TTGlyph>
    <TTGlyph name="uniFB2A" xMin="73" yMin="-3" xMax="651" yMax="688">
      <component glyphName="uni05E9" x="0" y="0" flags="0x204"/>
      <component glyphName="uni05C1" x="698" y="0" flags="0x4"/>
    </TTGlyph>
    <TTGlyph name="uniFB2B" xMin="73" yMin="-3" xMax="651" yMax="688">
      <component glyphName="uni05E9" x="0" y="0" flags="0x204"/>
      <component glyphName="uni05C2" x="4" y="0" flags="0x4"/>
    </TTGlyph>
    <TTGlyph name="uniFB2C" xMin="68" yMin="-3" xMax="646" yMax="688">
      <component glyphName="uni05E9.forDagesh" x="0" y="0" flags="0x204"/>
      <component glyphName="uni05BC" x="386" y="63" flags="0x4"/>
      <component glyphName="uni05C1" x="692" y="0" flags="0x4"/>
    </TTGlyph>
    <TTGlyph name="uniFB2D" xMin="68" yMin="-3" xMax="646" yMax="688">
      <component glyphName="uni05E9.forDagesh" x="0" y="0" flags="0x204"/>
      <component glyphName="uni05BC" x="386" y="63" flags="0x4"/>
      <component glyphName="uni05C2" x="-2" y="0" flags="0x4"/>
    </TTGlyph>
    <TTGlyph name="uniFB2E" xMin="80" yMin="-113" xMax="606" yMax="563">
      <component glyphName="uni05D0" x="0" y="0" flags="0x204"/>
      <component glyphName="uni05B7" x="357" y="0" flags="0x4"/>
    </TTGlyph>
    <TTGlyph name="uniFB2F" xMin="80" yMin="-247" xMax="606" yMax="563">
      <component glyphName="uni05D0" x="0" y="0" flags="0x204"/>
      <component glyphName="uni05B8" x="357" y="0" flags="0x4"/>
    </TTGlyph>
    <TTGlyph name="uniFB30" xMin="80" yMin="-3" xMax="606" yMax="563">
      <component glyphName="uni05D0.forDagesh" x="0" y="0" flags="0x204"/>
      <component glyphName="uni05BC" x="238" y="-72" flags="0x4"/>
    </TTGlyph>
    <TTGlyph name="uniFB31" xMin="73" yMin="0" xMax="523" yMax="560">
      <component glyphName="uni05D1" x="0" y="0" flags="0x204"/>
      <component glyphName="uni05BC" x="194" y="63" flags="0x4"/>
    </TTGlyph>
    <TTGlyph name="uniFB32" xMin="58" yMin="-2" xMax="264" yMax="561">
      <component glyphName="uni05D2" x="0" y="0" flags="0x204"/>
      <component glyphName="uni05BC" x="79" y="65" flags="0x4"/>
    </TTGlyph>
    <TTGlyph name="uniFB33" xMin="44" yMin="3" xMax="469" yMax="559">
      <component glyphName="uni05D3" x="0" y="0" flags="0x204"/>
      <component glyphName="uni05BC" x="160" y="63" flags="0x4"/>
    </TTGlyph>
    <TTGlyph name="uniFB34" xMin="92" yMin="0" xMax="527" yMax="557">
      <component glyphName="uni05D4" x="0" y="0" flags="0x204"/>
      <component glyphName="uni05BC" x="260" y="63" flags="0x4"/>
    </TTGlyph>
    <TTGlyph name="uniFB35" xMin="74" yMin="-1" xMax="202" yMax="563">
      <component glyphName="uni05D5" x="0" y="0" flags="0x204"/>
      <component glyphName="uni05BC" x="57" y="63" flags="0x4"/>
    </TTGlyph>
    <TTGlyph name="uniFB36" xMin="57" yMin="-3" xMax="269" yMax="559">
      <component glyphName="uni05D6" x="0" y="0" flags="0x204"/>
      <component glyphName="uni05BC" x="27" y="63" flags="0x4"/>
    </TTGlyph>
    <TTGlyph name="uniFB38" xMin="92" yMin="-11" xMax="586" yMax="560">
      <component glyphName="uni05D8" x="0" y="0" flags="0x204"/>
      <component glyphName="uni05BC" x="283" y="65" flags="0x4"/>
    </TTGlyph>
    <TTGlyph name="uniFB39" xMin="69" yMin="232" xMax="268" yMax="564">
      <component glyphName="uni05D9" x="0" y="0" flags="0x204"/>
      <component glyphName="uni05BC" x="75" y="126" flags="0x4"/>
    </TTGlyph>
    <TTGlyph name="uniFB3A" xMin="86" yMin="-128" xMax="477" yMax="557">
      <component glyphName="uni05DA" x="0" y="0" flags="0x204"/>
      <component glyphName="uni05BC" x="182" y="171" flags="0x4"/>
    </TTGlyph>
    <TTGlyph name="uniFB3B" xMin="67" yMin="0" xMax="449" yMax="560">
      <component glyphName="uni05DB" x="0" y="0" flags="0x204"/>
      <component glyphName="uni05BC" x="151" y="63" flags="0x4"/>
    </TTGlyph>
    <TTGlyph name="uniFB3C" xMin="75" yMin="-2" xMax="477" yMax="730">
      <component glyphName="uni05DC" x="0" y="0" flags="0x204"/>
      <component glyphName="uni05BC" x="196" y="66" flags="0x4"/>
    </TTGlyph>
    <TTGlyph name="uniFB3E" xMin="69" yMin="-1" xMax="607" yMax="571">
      <component glyphName="uni05DE" x="0" y="0" flags="0x204"/>
      <component glyphName="uni05BC" x="321" y="63" flags="0x4"/>
    </TTGlyph>
    <TTGlyph name="uniFB40" xMin="77" yMin="0" xMax="286" yMax="561">
      <component glyphName="uni05E0" x="0" y="0" flags="0x204"/>
      <component glyphName="uni05BC" x="96" y="63" flags="0x4"/>
    </TTGlyph>
    <TTGlyph name="uniFB41" xMin="70" yMin="-4" xMax="592" yMax="560">
      <component glyphName="uni05E1" x="0" y="0" flags="0x204"/>
      <component glyphName="uni05BC" x="293" y="81" flags="0x4"/>
    </TTGlyph>
    <TTGlyph name="uniFB43" xMin="69" yMin="-128" xMax="477" yMax="564">
      <component glyphName="uni05E3" x="0" y="0" flags="0x204"/>
      <component glyphName="uni05BC" x="276" y="51" flags="0x4"/>
    </TTGlyph>
    <TTGlyph name="uniFB44" xMin="69" yMin="-3" xMax="529" yMax="560">
      <component glyphName="uni05E4" x="0" y="0" flags="0x204"/>
      <component glyphName="uni05BC" x="325" y="63" flags="0x4"/>
    </TTGlyph>
    <TTGlyph name="uniFB46" xMin="62" yMin="0" xMax="488" yMax="563">
      <component glyphName="uni05E6" x="0" y="0" flags="0x204"/>
      <component glyphName="uni05BC" x="85" y="51" flags="0x4"/>
    </TTGlyph>
    <TTGlyph name="uniFB47" xMin="92" yMin="-128" xMax="522" yMax="555">
      <component glyphName="uni05E7" x="0" y="0" flags="0x204"/>
      <component glyphName="uni05BC" x="262" y="82" flags="0x4"/>
    </TTGlyph>
    <TTGlyph name="uniFB48" xMin="57" yMin="0" xMax="458" yMax="556">
      <component glyphName="uni05E8" x="0" y="0" flags="0x204"/>
      <component glyphName="uni05BC" x="190" y="63" flags="0x4"/>
    </TTGlyph>
    <TTGlyph name="uniFB49" xMin="68" yMin="-3" xMax="646" yMax="556">
      <component glyphName="uni05E9.forDagesh" x="0" y="0" flags="0x204"/>
      <component glyphName="uni05BC" x="386" y="63" flags="0x4"/>
    </TTGlyph>
    <TTGlyph name="uniFB4A" xMin="69" yMin="0" xMax="565" yMax="560">
      <component glyphName="uni05EA" x="0" y="0" flags="0x204"/>
      <component glyphName="uni05BC" x="316" y="63" flags="0x4"/>
    </TTGlyph>
    <TTGlyph name="uniFB4B" xMin="74" yMin="-1" xMax="202" yMax="688">
      <component glyphName="uni05D5" x="0" y="0" flags="0x204"/>
      <component glyphName="uni05B9" x="163" y="0" flags="0x4"/>
    </TTGlyph>
    <TTGlyph name="zero" xMin="55" yMin="-2" xMax="485" yMax="605">
      <contour>
        <pt x="270" y="-2" on="1"/>
        <pt x="208" y="-2" on="0"/>
        <pt x="111" y="75" on="0"/>
        <pt x="55" y="213" on="0"/>
        <pt x="55" y="303" on="1"/>
        <pt x="55" y="393" on="0"/>
        <pt x="111" y="529" on="0"/>
        <pt x="208" y="605" on="0"/>
        <pt x="270" y="605" on="1"/>
        <pt x="332" y="605" on="0"/>
        <pt x="429" y="529" on="0"/>
        <pt x="485" y="393" on="0"/>
        <pt x="485" y="303" on="1"/>
        <pt x="485" y="212" on="0"/>
        <pt x="429" y="75" on="0"/>
        <pt x="332" y="-2" on="0"/>
      </contour>
      <contour>
        <pt x="270" y="14" on="1"/>
        <pt x="328" y="14" on="0"/>
        <pt x="417" y="86" on="0"/>
        <pt x="469" y="217" on="0"/>
        <pt x="469" y="303" on="1"/>
        <pt x="469" y="388" on="0"/>
        <pt x="417" y="517" on="0"/>
        <pt x="328" y="589" on="0"/>
        <pt x="270" y="589" on="1"/>
        <pt x="212" y="589" on="0"/>
        <pt x="123" y="517" on="0"/>
        <pt x="71" y="388" on="0"/>
        <pt x="71" y="303" on="1"/>
        <pt x="71" y="216" on="0"/>
        <pt x="123" y="86" on="0"/>
        <pt x="213" y="14" on="0"/>
      </contour>
    </TTGlyph>
</ttFont>
